<svg class="main-svg" xmlns="http://www.w3.org/2000/svg" xmlns:xlink="http://www.w3.org/1999/xlink" width="700" height="500" style="" viewBox="0 0 700 500"><rect x="0" y="0" width="700" height="500" style="fill: rgb(255, 255, 255); fill-opacity: 1;"/><defs id="defs-1ee63b"><g class="clips"><clipPath id="clip1ee63bxyplot" class="plotclip"><rect width="404" height="275"/></clipPath><clipPath class="axesclip" id="clip1ee63bx"><rect x="80" y="0" width="404" height="500"/></clipPath><clipPath class="axesclip" id="clip1ee63by"><rect x="0" y="60" width="700" height="275"/></clipPath><clipPath class="axesclip" id="clip1ee63bxy"><rect x="80" y="60" width="404" height="275"/></clipPath></g><g class="gradients"/></defs><g class="bglayer"><rect class="bg" x="80" y="60" width="404" height="275" style="fill: rgb(229, 236, 246); fill-opacity: 1; stroke-width: 0;"/></g><g class="layer-below"><g class="imagelayer"/><g class="shapelayer"/></g><g class="cartesianlayer"><g class="subplot xy"><g class="layer-subplot"><g class="shapelayer"/><g class="imagelayer"/></g><g class="gridlayer"><g class="x"><path class="xgrid crisp" transform="translate(174.17000000000002,0)" d="M0,60v275" style="stroke: rgb(255, 255, 255); stroke-opacity: 1; stroke-width: 1px;"/><path class="xgrid crisp" transform="translate(262.26,0)" d="M0,60v275" style="stroke: rgb(255, 255, 255); stroke-opacity: 1; stroke-width: 1px;"/><path class="xgrid crisp" transform="translate(356.42,0)" d="M0,60v275" style="stroke: rgb(255, 255, 255); stroke-opacity: 1; stroke-width: 1px;"/><path class="xgrid crisp" transform="translate(447.55,0)" d="M0,60v275" style="stroke: rgb(255, 255, 255); stroke-opacity: 1; stroke-width: 1px;"/></g><g class="y"><path class="ygrid crisp" transform="translate(0,271.75)" d="M80,0h404" style="stroke: rgb(255, 255, 255); stroke-opacity: 1; stroke-width: 1px;"/><path class="ygrid crisp" transform="translate(0,222.25)" d="M80,0h404" style="stroke: rgb(255, 255, 255); stroke-opacity: 1; stroke-width: 1px;"/><path class="ygrid crisp" transform="translate(0,172.75)" d="M80,0h404" style="stroke: rgb(255, 255, 255); stroke-opacity: 1; stroke-width: 1px;"/><path class="ygrid crisp" transform="translate(0,123.25)" d="M80,0h404" style="stroke: rgb(255, 255, 255); stroke-opacity: 1; stroke-width: 1px;"/><path class="ygrid crisp" transform="translate(0,73.75)" d="M80,0h404" style="stroke: rgb(255, 255, 255); stroke-opacity: 1; stroke-width: 1px;"/></g></g><g class="zerolinelayer"><path class="yzl zl crisp" transform="translate(0,321.25)" d="M80,0h404" style="stroke: rgb(255, 255, 255); stroke-opacity: 1; stroke-width: 2px;"/></g><path class="xlines-below"/><path class="ylines-below"/><g class="overlines-below"/><g class="xaxislayer-below"/><g class="yaxislayer-below"/><g class="overaxes-below"/><g class="plot" transform="translate(80, 60)" clip-path="url('#clip1ee63bxyplot')"><g class="scatterlayer mlayer"><g class="trace scatter traced6d548" style="stroke-miterlimit: 2; opacity: 1;"><g class="fills"/><g class="errorbars"/><g class="lines"><path class="js-line" d="M0,36.63L3.04,29.17L6.08,34.45L12.15,34.45L15.19,32.9L18.23,35.6L21.26,31.96L24.3,27.18L27.34,30.18L33.41,30.18L36.45,28.3L39.49,27.57L42.53,25.52L45.56,19.48L48.6,18.34L57.71,18.34L60.75,21.78L66.83,22.59L69.86,26.43L75.94,26.43L78.98,36.69L82.02,32.46L85.05,32.2L88.09,29.38L91.13,43L97.2,43L100.24,39.76L106.32,19.63L109.35,17.63L112.39,23.89L115.43,23.89L118.47,23.89L121.5,19.95L124.54,19.96L127.58,13.75L130.62,16.64L133.65,17.21L142.77,17.21L145.8,20.96L148.84,18.34L151.88,21.23L154.92,26.37L157.95,26.37L160.99,26.37L164.03,49.67L167.07,69.53L170.11,72.33L173.14,99.22L176.18,107.29L182.26,107.29L185.29,78.07L188.33,95.82L191.37,69.32L194.41,91.21L197.44,97.01L203.52,97.01L206.56,142.48L209.59,116.13L212.63,149.21L215.67,202.34L218.71,157.51L224.78,157.51L227.82,225.19L230.86,201.51L233.89,231.73L236.93,227.48L239.97,248.11L246.05,248.11L249.08,261.25L252.12,213.53L255.16,202.34L258.2,171.82L261.23,192.49L267.31,192.49L270.35,176.89L273.38,186.16L276.42,208.14L279.46,197.53L282.5,205.68L288.57,205.68L291.61,168.93L294.65,169.52L297.68,151.91L300.72,145.46L303.76,145.46L309.83,145.46L312.87,152.88L315.91,140.25L318.95,150.31L321.98,149.56L325.02,133.64L331.1,133.64L334.14,147.01L337.17,161.28L340.21,150.96L343.25,150.07L346.29,144.19L352.36,144.19L355.4,136.1L358.44,136.83L361.47,124.8L364.51,131.31L367.55,145.36L376.66,144.77L379.7,141.76L382.74,146.69L385.77,141.92L388.81,131.64L391.85,131.64L394.89,131.64L397.92,134.11L404,156.1" style="vector-effect: non-scaling-stroke; fill: none; stroke: rgb(99, 110, 250); stroke-opacity: 1; stroke-width: 2px; opacity: 1;"/></g><g class="points"/><g class="text"/></g><g class="trace scatter trace6909d8" style="stroke-miterlimit: 2; opacity: 1;"><g class="fills"/><g class="errorbars"/><g class="lines"><path class="js-line" d="M0,47.22L3.04,41.39L6.08,46.35L12.15,46.35L15.19,43.89L18.23,45.85L21.26,42.43L24.3,37.76L27.34,39.78L33.41,39.78L36.45,34.87L39.49,35.94L42.53,34.62L45.56,28.69L48.6,25.93L57.71,25.93L60.75,27.83L66.83,26.81L69.86,33.29L75.94,33.29L78.98,44.46L82.02,37.43L85.05,38.04L88.09,35.83L91.13,48.36L97.2,48.36L100.24,43.32L106.32,24.84L109.35,22.45L112.39,26.34L115.43,26.34L118.47,26.34L121.5,21.09L124.54,19.87L127.58,15.19L130.62,16.38L133.65,15.04L142.77,15.04L145.8,17.17L148.84,13.75L151.88,16.53L154.92,24.18L157.95,24.18L160.99,24.18L164.03,48.28L167.07,69.32L170.11,71.87L173.14,101.52L176.18,106.81L182.26,106.81L185.29,77.51L188.33,96.22L191.37,68.91L194.41,91.79L197.44,102.9L203.52,102.9L206.56,151.55L209.59,122.32L212.63,152.67L215.67,208.84L218.71,159.21L224.78,159.21L227.82,229.21L230.86,198.38L233.89,226.63L236.93,224.19L239.97,246.7L246.05,246.7L249.08,261.25L252.12,216.02L255.16,209.94L258.2,176.65L261.23,195.74L267.31,195.74L270.35,177.39L273.38,186.45L276.42,211.03L279.46,198.88L282.5,207.12L288.57,207.12L291.61,169.41L294.65,170.33L297.68,150.81L300.72,142.23L303.76,142.23L309.83,142.23L312.87,148.3L315.91,130.11L318.95,143.62L321.98,140.13L325.02,123.97L331.1,123.97L334.14,135.05L337.17,153.71L340.21,140.19L343.25,140.51L346.29,132.12L352.36,132.12L355.4,123.13L358.44,126.38L361.47,109.98L364.51,115.81L367.55,133.42L373.62,133.42L376.66,130.83L379.7,125.29L382.74,129.6L385.77,122.54L388.81,112.07L397.92,111.99L400.96,124.93L404,135.73" style="vector-effect: non-scaling-stroke; fill: none; stroke: rgb(239, 85, 59); stroke-opacity: 1; stroke-width: 2px; opacity: 1;"/></g><g class="points"/><g class="text"/></g></g></g><g class="overplot"/><path class="xlines-above crisp" d="M0,0" style="fill: none;"/><path class="ylines-above crisp" d="M0,0" style="fill: none;"/><g class="overlines-above"/><g class="xaxislayer-above"><g class="xtick"><text text-anchor="middle" x="0" y="348" transform="translate(80,0)" style="font-family: 'Franklin Gothic'; font-size: 12px; fill: rgb(42, 63, 95); fill-opacity: 1; white-space: pre;">Jan 2020</text></g><g class="xtick"><text text-anchor="middle" x="0" y="348" transform="translate(174.17000000000002,0)" style="font-family: 'Franklin Gothic'; font-size: 12px; fill: rgb(42, 63, 95); fill-opacity: 1; white-space: pre;">Feb 2020</text></g><g class="xtick"><text text-anchor="middle" x="0" y="348" transform="translate(262.26,0)" style="font-family: 'Franklin Gothic'; font-size: 12px; fill: rgb(42, 63, 95); fill-opacity: 1; white-space: pre;">Mar 2020</text></g><g class="xtick"><text text-anchor="middle" x="0" y="348" transform="translate(356.42,0)" style="font-family: 'Franklin Gothic'; font-size: 12px; fill: rgb(42, 63, 95); fill-opacity: 1; white-space: pre;">Apr 2020</text></g><g class="xtick"><text text-anchor="middle" x="0" y="348" transform="translate(447.55,0)" style="font-family: 'Franklin Gothic'; font-size: 12px; fill: rgb(42, 63, 95); fill-opacity: 1; white-space: pre;">May 2020</text></g></g><g class="yaxislayer-above"><g class="ytick"><text text-anchor="end" x="79" y="4.199999999999999" transform="translate(0,321.25)" style="font-family: 'Franklin Gothic'; font-size: 12px; fill: rgb(42, 63, 95); fill-opacity: 1; white-space: pre;">0</text></g><g class="ytick"><text text-anchor="end" x="79" y="4.199999999999999" transform="translate(0,271.75)" style="font-family: 'Franklin Gothic'; font-size: 12px; fill: rgb(42, 63, 95); fill-opacity: 1; white-space: pre;">0.2</text></g><g class="ytick"><text text-anchor="end" x="79" y="4.199999999999999" transform="translate(0,222.25)" style="font-family: 'Franklin Gothic'; font-size: 12px; fill: rgb(42, 63, 95); fill-opacity: 1; white-space: pre;">0.4</text></g><g class="ytick"><text text-anchor="end" x="79" y="4.199999999999999" transform="translate(0,172.75)" style="font-family: 'Franklin Gothic'; font-size: 12px; fill: rgb(42, 63, 95); fill-opacity: 1; white-space: pre;">0.6</text></g><g class="ytick"><text text-anchor="end" x="79" y="4.199999999999999" transform="translate(0,123.25)" style="font-family: 'Franklin Gothic'; font-size: 12px; fill: rgb(42, 63, 95); fill-opacity: 1; white-space: pre;">0.8</text></g><g class="ytick"><text text-anchor="end" x="79" y="4.199999999999999" transform="translate(0,73.75)" style="font-family: 'Franklin Gothic'; font-size: 12px; fill: rgb(42, 63, 95); fill-opacity: 1; white-space: pre;">1</text></g></g><g class="overaxes-above"/></g></g><g class="polarlayer"/><g class="ternarylayer"/><g class="geolayer"/><g class="funnelarealayer"/><g class="pielayer"/><g class="treemaplayer"/><g class="sunburstlayer"/><g class="glimages"/><defs id="topdefs-1ee63b"><g class="clips"/><clipPath id="legend1ee63b"><rect width="196" height="64" x="0" y="0"/></clipPath><clipPath id="rangesliderx-1ee63b"><rect x="0" y="0" width="404" height="54"/></clipPath></defs><g class="layer-above"><g class="imagelayer"/><g class="shapelayer"/></g><g class="infolayer"><g class="legend" pointer-events="all" transform="translate(492.08, 60)"><rect class="bg" shape-rendering="crispEdges" width="196" height="64" x="0" y="0" style="stroke: rgb(68, 68, 68); stroke-opacity: 1; fill: rgb(255, 255, 255); fill-opacity: 1; stroke-width: 0px;"/><g class="scrollbox" transform="translate(0, 0)" clip-path="url('#legend1ee63b')"><text class="legendtitletext user-select-none" text-anchor="start" x="2" y="15.600000000000001" style="font-family: 'Franklin Gothic'; font-size: 12px; fill: rgb(42, 63, 95); fill-opacity: 1; white-space: pre;">stock</text><g class="groups" transform="translate(0, 0)"><g class="traces" transform="translate(0, 30.1)" style="opacity: 1;"><text class="legendtext user-select-none" text-anchor="start" x="40" y="4.680000000000001" style="font-family: 'Franklin Gothic'; font-size: 12px; fill: rgb(42, 63, 95); fill-opacity: 1; white-space: pre;">Dow Jones Industrial Average</text><g class="layers" style="opacity: 1;"><g class="legendfill"/><g class="legendlines"><path class="js-line" d="M5,0h30" style="fill: none; stroke: rgb(99, 110, 250); stroke-opacity: 1; stroke-width: 2px;"/></g><g class="legendsymbols"><g class="legendpoints"/></g></g><rect class="legendtoggle" pointer-events="all" x="0" y="-9.5" width="190.734375" height="19" style="cursor: pointer; fill: rgb(0, 0, 0); fill-opacity: 0;"/></g></g><g class="groups" transform="translate(0, 0)"><g class="traces" transform="translate(0, 49.1)" style="opacity: 1;"><text class="legendtext user-select-none" text-anchor="start" x="40" y="4.680000000000001" style="font-family: 'Franklin Gothic'; font-size: 12px; fill: rgb(42, 63, 95); fill-opacity: 1; white-space: pre;">S&amp;P 500</text><g class="layers" style="opacity: 1;"><g class="legendfill"/><g class="legendlines"><path class="js-line" d="M5,0h30" style="fill: none; stroke: rgb(239, 85, 59); stroke-opacity: 1; stroke-width: 2px;"/></g><g class="legendsymbols"><g class="legendpoints"/></g></g><rect class="legendtoggle" pointer-events="all" x="0" y="-9.5" width="190.734375" height="19" style="cursor: pointer; fill: rgb(0, 0, 0); fill-opacity: 0;"/></g></g></g><rect class="scrollbar" rx="20" ry="3" width="0" height="0" x="0" y="0" style="fill: rgb(128, 139, 164); fill-opacity: 1;"/></g><g class="g-gtitle"><text class="gtitle" x="350" y="30" text-anchor="middle" dy="0em" style="font-family: 'Franklin Gothic'; font-size: 17px; fill: rgb(42, 63, 95); opacity: 1; font-weight: normal; white-space: pre;">Dow Jones Industrial Average ,S&amp;P 500 since 2020-01-01</text></g><g class="rangeslider-container" pointer-events="all" transform="translate(80,366)"><rect class="rangeslider-bg" x="0" y="0" shape-rendering="crispEdges" width="404" height="54" transform="translate(0,0)" fill="#E5ECF6" stroke="#444" stroke-width="0"/><g class="rangeslider-rangeplot xy" clip-path="url('#rangesliderx-1ee63b')"><g class="layer-subplot"><g class="shapelayer"/><g class="imagelayer"/></g><g class="gridlayer"><g class="x"/><g class="y"/></g><g class="zerolinelayer"/><path class="xlines-below"/><path class="ylines-below"/><g class="overlines-below"/><g class="xaxislayer-below"/><g class="yaxislayer-below"/><g class="overaxes-below"/><g class="plot"><g class="scatterlayer mlayer rangeplot"><g class="trace scatter traced6d548" style="stroke-miterlimit: 2; opacity: 1;"><g class="fills"/><g class="errorbars"/><g class="lines"><path class="js-line" d="M0,7.19L3.04,5.73L6.08,6.76L21.26,6.28L24.3,5.34L30.38,5.93L33.41,5.93L42.53,5.01L45.56,3.83L57.71,3.6L60.75,4.28L66.83,4.44L69.86,5.19L75.94,5.19L78.98,7.2L85.05,6.32L88.09,5.77L91.13,8.44L94.17,8.44L100.24,7.81L103.28,6L106.32,3.86L109.35,3.46L112.39,4.69L115.43,4.69L118.47,4.69L121.5,3.92L124.54,3.92L127.58,2.7L133.65,3.38L136.69,3.38L148.84,3.6L151.88,4.17L154.92,5.18L157.95,5.18L160.99,5.18L164.03,9.75L167.07,13.65L170.11,14.2L173.14,19.48L176.18,21.07L182.26,21.07L185.29,15.33L188.33,18.82L191.37,13.61L194.41,17.91L197.44,19.05L203.52,19.05L206.56,27.98L209.59,22.8L212.63,29.3L215.67,39.73L218.71,30.93L224.78,30.93L227.82,44.22L230.86,39.57L233.89,45.5L236.93,44.67L239.97,48.72L246.05,48.72L249.08,51.3L252.12,41.93L255.16,39.73L258.2,33.74L261.23,37.8L267.31,37.8L270.35,34.73L273.38,36.55L276.42,40.87L279.46,38.79L282.5,40.39L288.57,40.39L291.61,33.17L294.65,33.29L297.68,29.83L300.72,28.56L303.76,28.56L309.83,28.56L312.87,30.02L315.91,27.54L318.95,29.52L321.98,29.37L325.02,26.24L331.1,26.24L334.14,28.87L337.17,31.67L340.21,29.64L343.25,29.47L346.29,28.31L352.36,28.31L355.4,26.72L358.44,26.87L361.47,24.51L364.51,25.78L367.55,28.54L379.7,27.84L382.74,28.8L385.77,27.87L388.81,25.85L397.92,26.33L400.96,28.36L404,30.65" style="vector-effect: non-scaling-stroke; fill: none; stroke: rgb(99, 110, 250); stroke-opacity: 1; stroke-width: 2px; opacity: 1;"/></g><g class="points"/><g class="text"/></g><g class="trace scatter trace6909d8" style="stroke-miterlimit: 2; opacity: 1;"><g class="fills"/><g class="errorbars"/><g class="lines"><path class="js-line" d="M0,9.27L3.04,8.13L6.08,9.1L18.23,9L21.26,8.33L24.3,7.42L27.34,7.81L33.41,7.81L36.45,6.85L42.53,6.8L45.56,5.63L51.64,5.09L54.68,5.09L66.83,5.26L69.86,6.54L75.94,6.54L78.98,8.73L82.02,7.35L85.05,7.47L88.09,7.04L91.13,9.5L97.2,9.5L100.24,8.51L106.32,4.88L109.35,4.41L115.43,5.17L118.47,5.17L121.5,4.14L124.54,3.9L127.58,2.98L130.62,3.22L139.73,2.95L142.77,2.95L145.8,3.37L148.84,2.7L151.88,3.25L154.92,4.75L160.99,4.75L164.03,9.48L167.07,13.61L170.11,14.11L173.14,19.94L176.18,20.97L182.26,20.97L185.29,15.22L188.33,18.89L191.37,13.53L194.41,18.02L197.44,20.21L203.52,20.21L206.56,29.76L209.59,24.02L212.63,29.98L215.67,41.01L218.71,31.26L224.78,31.26L227.82,45.01L230.86,38.96L233.89,44.5L236.93,44.02L239.97,48.44L246.05,48.44L249.08,51.3L252.12,42.42L255.16,41.22L258.2,34.69L261.23,38.44L267.31,38.44L270.35,34.83L273.38,36.61L276.42,41.44L279.46,39.05L282.5,40.67L288.57,40.67L291.61,33.27L294.65,33.45L297.68,29.61L300.72,27.93L303.76,27.93L309.83,27.93L312.87,29.12L315.91,25.55L318.95,28.2L321.98,27.52L325.02,24.34L331.1,24.34L334.14,26.52L337.17,30.18L340.21,27.53L343.25,27.59L346.29,25.94L352.36,25.94L355.4,24.18L358.44,24.82L361.47,21.6L364.51,22.74L367.55,26.2L376.66,25.69L379.7,24.6L382.74,25.45L385.77,24.06L388.81,22.01L391.85,22.01L397.92,21.99L400.96,24.53L404,26.65" style="vector-effect: non-scaling-stroke; fill: none; stroke: rgb(239, 85, 59); stroke-opacity: 1; stroke-width: 2px; opacity: 1;"/></g><g class="points"/><g class="text"/></g></g></g><g class="overplot"/><path class="xlines-above crisp" style="fill: none;"/><path class="ylines-above crisp" style="fill: none;"/><g class="overlines-above"/><g class="xaxislayer-above"/><g class="yaxislayer-above"/><g class="overaxes-above"/></g><rect class="rangeslider-mask-min" x="0" y="0" shape-rendering="crispEdges" height="54" width="0" style="fill: rgb(0, 0, 0); fill-opacity: 0.4;"/><rect class="rangeslider-mask-max" y="0" shape-rendering="crispEdges" height="54" x="404" width="0" style="fill: rgb(0, 0, 0); fill-opacity: 0.4;"/><g class="rangeslider-grabber-min" transform="translate(-2.5,0.5)"><rect class="rangeslider-handle-min" x="0" width="4" rx="1" fill="#fff" stroke="#444" stroke-width="1" shape-rendering="crispEdges" y="14" height="27"/></g><g class="rangeslider-grabber-max" transform="translate(402.5,0.5)"><rect class="rangeslider-handle-max" x="0" width="4" rx="1" fill="#fff" stroke="#444" stroke-width="1" shape-rendering="crispEdges" y="14" height="27"/></g></g><g class="g-ytitle"><text class="ytitle" transform="rotate(-90,37.23125,197.5)" x="37.23125" y="197.5" text-anchor="middle" style="font-family: 'Franklin Gothic'; font-size: 14px; fill: rgb(42, 63, 95); opacity: 1; font-weight: normal; white-space: pre;">Stock</text></g><g class="g-xtitle"><text class="xtitle" x="282" y="451" text-anchor="middle" style="font-family: 'Franklin Gothic'; font-size: 14px; fill: rgb(42, 63, 95); opacity: 1; font-weight: normal; white-space: pre;">Date</text></g></g></svg>