<svg class="main-svg" xmlns="http://www.w3.org/2000/svg" xmlns:xlink="http://www.w3.org/1999/xlink" width="700" height="500" style="" viewBox="0 0 700 500"><rect x="0" y="0" width="700" height="500" style="fill: rgb(255, 255, 255); fill-opacity: 1;"/><defs id="defs-86d7e3"><g class="clips"><clipPath id="clip86d7e3xyplot" class="plotclip"><rect width="507.59999999999997" height="320"/></clipPath><clipPath id="clip86d7e3xy2plot" class="plotclip"><rect width="507.59999999999997" height="320"/></clipPath><clipPath class="axesclip" id="clip86d7e3x"><rect x="80" y="0" width="507.59999999999997" height="500"/></clipPath><clipPath class="axesclip" id="clip86d7e3y"><rect x="0" y="100" width="700" height="320"/></clipPath><clipPath class="axesclip" id="clip86d7e3xy"><rect x="80" y="100" width="507.59999999999997" height="320"/></clipPath><clipPath class="axesclip" id="clip86d7e3y2"><rect x="0" y="100" width="700" height="320"/></clipPath><clipPath class="axesclip" id="clip86d7e3xy2"><rect x="80" y="100" width="507.59999999999997" height="320"/></clipPath></g><g class="gradients"/></defs><g class="bglayer"><rect class="bg" x="80" y="100" width="507.59999999999997" height="320" style="fill: rgb(229, 236, 246); fill-opacity: 1; stroke-width: 0;"/></g><g class="layer-below"><g class="imagelayer"/><g class="shapelayer"/></g><g class="cartesianlayer"><g class="subplot xy"><g class="layer-subplot"><g class="shapelayer"/><g class="imagelayer"/></g><g class="gridlayer"><g class="x"><path class="xgrid crisp" transform="translate(87.52,0)" d="M0,100v320" style="stroke: rgb(255, 255, 255); stroke-opacity: 1; stroke-width: 1px;"/><path class="xgrid crisp" transform="translate(192.20999999999998,0)" d="M0,100v320" style="stroke: rgb(255, 255, 255); stroke-opacity: 1; stroke-width: 1px;"/><path class="xgrid crisp" transform="translate(298.63,0)" d="M0,100v320" style="stroke: rgb(255, 255, 255); stroke-opacity: 1; stroke-width: 1px;"/><path class="xgrid crisp" transform="translate(403.32,0)" d="M0,100v320" style="stroke: rgb(255, 255, 255); stroke-opacity: 1; stroke-width: 1px;"/><path class="xgrid crisp" transform="translate(509.74,0)" d="M0,100v320" style="stroke: rgb(255, 255, 255); stroke-opacity: 1; stroke-width: 1px;"/></g><g class="y"><path class="ygrid crisp" transform="translate(0,372.76)" d="M80,0h507.59999999999997" style="stroke: rgb(255, 255, 255); stroke-opacity: 1; stroke-width: 1px;"/><path class="ygrid crisp" transform="translate(0,307.31)" d="M80,0h507.59999999999997" style="stroke: rgb(255, 255, 255); stroke-opacity: 1; stroke-width: 1px;"/><path class="ygrid crisp" transform="translate(0,241.86)" d="M80,0h507.59999999999997" style="stroke: rgb(255, 255, 255); stroke-opacity: 1; stroke-width: 1px;"/><path class="ygrid crisp" transform="translate(0,176.41)" d="M80,0h507.59999999999997" style="stroke: rgb(255, 255, 255); stroke-opacity: 1; stroke-width: 1px;"/><path class="ygrid crisp" transform="translate(0,110.96000000000001)" d="M80,0h507.59999999999997" style="stroke: rgb(255, 255, 255); stroke-opacity: 1; stroke-width: 1px;"/></g><g class="y2"><path class="y2grid crisp" transform="translate(0,346.4)" d="M80,0h507.59999999999997" style="stroke: rgb(255, 255, 255); stroke-opacity: 1; stroke-width: 1px;"/><path class="y2grid crisp" transform="translate(0,288.8)" d="M80,0h507.59999999999997" style="stroke: rgb(255, 255, 255); stroke-opacity: 1; stroke-width: 1px;"/><path class="y2grid crisp" transform="translate(0,231.2)" d="M80,0h507.59999999999997" style="stroke: rgb(255, 255, 255); stroke-opacity: 1; stroke-width: 1px;"/><path class="y2grid crisp" transform="translate(0,173.6)" d="M80,0h507.59999999999997" style="stroke: rgb(255, 255, 255); stroke-opacity: 1; stroke-width: 1px;"/><path class="y2grid crisp" transform="translate(0,116)" d="M80,0h507.59999999999997" style="stroke: rgb(255, 255, 255); stroke-opacity: 1; stroke-width: 1px;"/></g></g><g class="zerolinelayer"><path class="y2zl zl crisp" transform="translate(0,404)" d="M80,0h507.59999999999997" style="stroke: rgb(255, 255, 255); stroke-opacity: 1; stroke-width: 2px;"/></g><path class="xlines-below"/><path class="ylines-below"/><g class="overlines-below"><path class="xy2-x"/><path class="xy2-y"/></g><g class="xaxislayer-below"/><g class="yaxislayer-below"/><g class="overaxes-below"><g class="xy2-x"/><g class="xy2-y"/></g><g class="plot" transform="translate(80, 100)" clip-path="url('#clip86d7e3xyplot')"><g class="scatterlayer mlayer"><g class="trace scatter traced8ab65" style="stroke-miterlimit: 2; opacity: 1;"><g class="fills"/><g class="errorbars"/><g class="lines"><path class="js-line" d="M507.6,88.94L507.09,89.19L506.65,86.65L505.75,95.43L504.54,95.43L504.16,98.13L503.53,97.97L503.01,94.04L502.56,102.01L501.89,100.45L501.7,97.3L500.48,97.3L500.08,99.28L499.53,111.71L499,123.43L498.55,122.25L497.79,100.66L497.61,95.1L496.45,95.1L495.51,94.41L495,90.04L494.37,85.53L493.75,74.36L493.01,72.96L492.64,75.12L492.1,75.33L491.48,72.84L490.72,64.74L490.36,67.33L489.78,68.78L488.64,62.75L488.03,64.39L486.8,55.74L486.41,32.2L485.71,34.12L485.01,17.88L484.29,18L483.77,16L483.31,21.63L482.78,16.96L481.56,32.59L481.22,18.05L480.24,16.99L480,17.27L479.36,34.19L477.4,103.15L477.4,103.15L475.85,103.15L475.43,85.75L474.67,109.23L474.17,109.08L473.56,118.28L472.77,121.78L472.77,132.46L471.77,132.46L471.22,130.8L470.71,131.15L470.03,119.06L469.63,115.84L469.31,116.99L467.7,116.99L467.17,113.93L466.55,102.65L466.02,100.72L465.36,103.29L465.26,98.52L464.28,98.52L463.73,94.32L463.29,96.36L462.51,101.19L461.21,98.99L461.21,98.99L459.58,98.99L458.07,57.75L457.29,81.1L456.68,98.84L455.43,98.84L455.02,97.95L454.45,94L453.11,81.81L453.11,81.81L451.46,81.81L451.01,80.52L450.32,96.03L449.79,92.32L449.25,96.8L448.47,88.31L447.88,95.82L447.5,95.18L446.98,114.69L446.17,110.73L445.9,102.8L445.24,112.72L444.52,106.7L444.43,108.6L443.62,108.6L442.33,144.81L441.87,134.59L441.12,118.52L440.9,130.8L439.27,130.8L438.82,128.09L438.2,136.94L437.56,131.89L437.09,132.17L436.93,148.79L435.44,148.79L434.84,145.89L434.24,146.29L433.77,142.31L432.87,125.64L432.87,125.64L431.35,125.64L430.76,128.44L429.97,121.81L429.52,121.69L429.02,123.81L428.24,122.06L428.24,122.17L427.08,122.17L426.63,118.8L425.92,118.99L425.35,117.85L424.95,117.96L424.77,99.82L423.22,99.82L422.66,97.54L422.09,97L421.58,83.46L419.74,146.82L419.04,146.13L418.5,146.56L418.04,146.81L417.41,152.2L416.89,154.9L416.67,153.76L415.11,153.76L413.32,153.94L412.9,155.08L412.33,150.29L412.34,150.29L410.88,150.28L410.88,149.87L409.95,149.87L408.72,150.84L408.58,145.4L406.33,145.9L405.83,163.08L404.53,168.16L404.53,168.16L403.03,168.16L402.27,169.62L401.85,176.22L400.12,161.86L400.12,161.87L398.74,161.87L398.36,161.78L397.8,167.6L397.35,164.14L396.43,172.34L395.84,169.67L395.28,177.54L394.87,178.5L394.3,170.48L393.7,171.7L393.3,187.32L392.38,183.99L392.12,184.82L391.56,184.44L390.99,184.95L390.28,188.75L389.69,182.43L389.26,166.14L388.52,167.77L388.01,157.05L388.01,157.44L386.88,157.44L385.15,152.62L384.6,142.04L383.94,136.37L383.16,138.85L382.74,137.92L382.28,146.14L381.6,155L381.14,154.09L380.42,157.52L380.24,154.9L380.24,154.9L378.8,154.9L378.11,167.78L377.56,165.7L376.96,158.92L376.18,116.42L376.18,116.42L374.78,116.42L374.13,115.89L373.53,111.26L372.95,104.67L372.36,127.51L371.75,127.44L371.21,136.02L370.72,135.1L370.07,139.68L369.45,149.22L368.86,148.9L368.38,149.48L367.49,154.49L367.49,153.95L366.69,153.95L366.06,153.28L365.42,158.63L364.92,174.06L364.24,157.99L362.88,159.54L362.6,161.88L361.93,161.59L361.47,162.83L360.91,159.39L360.34,169.23L360.34,165.95L360.34,165.95L358.54,165.95L357.44,165.98L356.81,164.03L355.64,154.84L355.09,154.14L354.52,155.24L353.82,159.63L352.81,143.06L352.08,136.92L350.44,137.92L349.77,135.62L349.23,150.88L348.73,147.26L348.03,140.36L347.25,137.44L346.64,138.24L346.37,138.66L345.78,137.47L345.2,139.75L344.65,131.93L344.05,128.45L343.22,128.93L342.64,131.1L342.25,130.55L341.52,126.17L341.13,128.36L340.56,114.12L339.97,126.63L339.15,123.84L338.57,125.26L338.23,124.09L335.89,110L335.29,119.25L335.29,118.97L333.97,118.97L332.49,133.29L331.84,128.99L331.08,123.03L330.51,128.99L329.55,128.88L328.95,124.98L327.07,121.18L327.07,132.96L324.93,132.96L324.31,131.83L323.74,135.69L322.76,131.63L322,130.64L321.43,132.07L320.85,134.04L320.4,132.49L318.91,122.34L318.38,122.18L318.02,121.65L317.38,126.22L316.81,125.74L316.23,126.66L315.79,126.54L314.87,121.22L314.87,129.34L314.02,129.34L312.77,139.17L312.31,142.36L311.59,140.09L311.41,155.14L309.86,155.57L309.3,159.02L308.7,155.13L308.12,156.76L307.56,155.17L306.76,156.98L306.76,169.21L305.93,169.21L305.33,166.42L304.66,168.87L304.2,170.7L303.88,168.21L303.88,167.21L303.88,167.21L301.78,167.21L301.29,167.07L300.66,169.82L300.09,168.52L299.45,148.01L299.22,143.91L298.16,143.91L297.19,140.74L296.63,136.39L295.22,128.37L294.14,128.37L292.57,127.43L291.98,112.97L290.57,120.23L290.57,131.35L289.72,131.35L289.14,149.13L287.9,172.35L287.34,167.17L287.11,168.95L286.08,168.95L285.72,169.83L285.15,162.37L283.38,165.35L283.07,155.02L281.58,155.32L281.08,143.48L280.38,143.3L279.92,137.99L279.31,143.56L278.41,135.79L278.42,137.69L277.58,137.69L276.43,146.74L275.87,142.22L275.16,131.66L274.67,137.32L273.54,134.13L272.86,137.27L272.29,136.87L271.8,144.41L271.14,137.35L270.68,137.55L270.29,143.63L269.48,143.63L268.8,145.74L267.76,145.01L267.16,130.89L266.3,136.96L266.27,145.68L265.46,145.68L264.9,153.51L264.18,161.08L263.6,157.03L263.07,155.3L262.55,160.24L261.68,159.41L261.32,161.05L260.13,151.09L259.67,150.43L258.98,150.38L258.73,149.5L257.38,149.39L256.66,143.99L255.51,158.29L254.93,137.49L254.47,133.31L253.51,143.16L253.17,143.23L252.73,132.89L252.12,134.17L251.43,133.49L250.98,121.41L250.07,118.88L249.26,118.99L248.56,127.02L247.55,143.65L246.4,147.06L245.83,146.9L245.66,149.38L244.05,159.16L243.44,191.98L242.02,200.05L242.02,200.02L241.16,200.02L238.29,222.53L237.38,221.82L236.4,223.52L235.91,223.26L235.4,214.19L234.72,214.98L234.24,226.11L233.88,231.02L233.03,231.02L232.5,222.69L231.85,222.83L231.3,202.05L230.77,208.21L230.14,205.68L228.34,209.34L227.76,201.33L227.14,180.88L226.56,183.54L226.14,190.76L225.24,174.8L224.91,175.06L224.28,174.7L222.52,166.29L222.32,161.74L220.36,161.15L219.7,162.46L218.47,159.54L217.93,160.58L216.92,160.97L216.74,159.09L216.15,158.47L215.62,161.11L214.21,136.52L212.86,136.52L212.68,135.21L212.2,138.13L211.67,139.05L210.95,127.08L210.45,134.1L209.62,124.67L209.62,125.44L208.77,125.44L208.17,126.2L207.59,125.66L206.87,144.43L206.4,133.99L205.57,130.06L204.78,135.01L204.41,134.61L204.14,140.23L203.42,130.43L202.79,134.98L201.49,124.15L200.91,127.24L200.36,123.36L199.78,127.13L198.79,117.28L198.16,124.34L197.44,112.17L197.44,112.97L195.31,113.32L194.66,128.71L194.21,116.78L193.68,126.84L192.45,126.84L191.83,128.11L191.18,141.52L190.7,149.76L190.12,148.3L189.95,136.51L188.41,136.51L187.78,140.28L186.49,147.87L186.01,146.26L185.57,134.43L184.76,137.77L184.16,138.29L183.68,141.92L183.33,141.69L182.59,134.41L181.24,127.43L180.81,127.25L180.39,128.89L179.78,116.81L179.27,115.59L178.64,106.7L177.99,105.6L177.28,119.84L176.3,134.92L175.59,122.46L175.14,121.49L174.43,144.09L174.02,141.06L172.96,149.09L172.81,148.71L172.24,149.27L171.56,147.69L170.98,151.5L170.45,140.64L169.88,126.23L169.15,131.16L168.62,129.51L168.1,136.22L167.72,137.92L166.96,145.89L165.96,149.3L165.64,157.86L164.66,157.86L163.91,159.05L162.98,162.37L162.42,161.51L161.04,166.69L160.64,187.29L158.8,196.01L158.42,194.93L157.64,202.68L157.56,202.17L156.73,202.17L155.42,211.59L154.67,211.26L154.3,207.43L153.67,208.83L153.51,188.53L152.37,188.53L150.74,210.65L149.8,205.49L149.74,205.35L149.46,199L147.97,199L147.29,158.06L146.27,162.23L145.51,146.16L144.94,145.57L144.91,159.33L143.91,159.33L143.29,138.92L142.76,137.75L142.28,149.22L141.63,133.34L141.42,142.72L139.7,142.72L139.21,138.18L138.77,140.06L138.02,135.14L137.42,147.79L137.34,144.72L135.74,144.72L135.17,144.49L134.61,151.28L134.07,159.84L133.35,159.3L133.27,160.36L133.27,160.36L131.72,160.36L131.03,160.37L130.46,164.8L129.96,161.05L129.51,164.62L128.79,167.82L128.65,158.9L127.63,158.9L127.04,165.3L125.93,162.32L125.42,148.96L124.78,142.06L124.05,151.13L122.98,148.86L122.41,149.71L121.21,137.85L121.11,140.82L120.06,140.82L119.58,139.75L119.01,132.38L118.43,143.07L117.78,146.16L117.15,137.34L116.54,133.89L115.54,133.89L114.79,147.2L113.73,147.2L113.18,141.76L112.75,148.47L112.75,149.84L111.44,149.84L109.68,135.56L109.05,132.2L108.66,125.57L108.66,129.72L107.34,129.72L106.78,123.36L106.26,125.11L105.62,131.99L104.95,138.76L104.95,138.76L103.37,138.76L102.1,160.49L101.65,156.12L101.07,158.14L100.9,154L99.72,154L98.78,146.23L98.1,164.3L96.83,154.65L95.75,154.65L94.71,153.44L94.03,132.05L92.86,122.64L92.8,118.94L91.71,118.94L91.16,133.41L89.93,136.66L89.6,133.62L88.94,141.29L88.74,129.36L87.3,129.36L86.66,133.26L85.95,137.01L85.54,131.06L84.86,138.59L84.7,137.83L83.29,137.83L81.86,145.99L81.29,144.88L81.29,138.92L81.29,138.92L78.89,160.93L77.74,169.62L77.29,167.61L76.66,186.32L76.58,195.12L75.51,195.12L74.85,187.72L74.45,187.94L73.9,190.41L72.62,202.07L72.53,198.08L70.93,198.08L69.64,202.03L69.25,187.9L68.57,184.11L67.94,187.81L67.93,181.97L66.91,181.97L65.73,187.35L65.16,187.47L64.43,208.33L64.43,208.33L62.85,208.33L60.63,186.71L60.37,189.53L58.75,189.53L58.28,200.22L57.55,201.05L57.21,192.04L56.5,171.47L55.86,183.05L55.86,193.68L54.69,185.21L53.58,188.07L53.02,183.38L52.51,183.09L51.76,190.43L51.76,199.39L50.69,199.39L50.26,192.16L49.41,193.42L48.33,185.06L48.33,185.06L46.67,185.06L46.15,186.73L45.45,200.19L44.92,191.85L44.35,194.63L44.19,193.62L42.68,193.62L42,187.79L40.3,227.91L39.62,237.47L39.59,206.67L38.49,206.67L38.03,188.5L37.43,189.43L36.81,174.95L36.18,169.95L36.09,161.89L34.49,161.89L33.55,159.56L33.33,160.58L32.75,175.18L32.13,177.21L32.04,180.13L29.85,180.75L29.22,184.04L28.68,202.98L28.08,195.05L27.97,200.5L26.98,200.5L26.38,200.79L25.94,214.54L25.2,222.81L24.69,240.18L24.03,247.12L23.95,245.84L22.38,245.84L21.27,233.91L20.59,261.18L19.34,224.62L18.32,224.62L17.09,200.56L16.53,214.46L15.85,236.73L15.85,236.73L14.25,236.73L13.82,236.65L13.2,232.81L11.94,250.08L11.79,245.74L10.4,245.74L8.62,277.16L7.26,277.16L6.12,282.18L5.52,281.54L4.37,293.52L3.21,293.52L1.48,304L0.93,298.74L0.38,302.16" style="vector-effect: non-scaling-stroke; fill: none; stroke: rgb(99, 110, 250); stroke-opacity: 1; stroke-width: 2px; opacity: 1;"/></g><g class="points"/><g class="text"/></g></g></g><g class="overplot"><g class="xy2" transform="translate(80, 100)" clip-path="url('#clip86d7e3xy2plot')"><g class="scatterlayer mlayer"><g class="trace scatter trace4e9710" style="stroke-miterlimit: 2; opacity: 1;"><g class="fills"/><g class="errorbars"/><g class="lines"><path class="js-line" d="M0,142.05L0.58,142.79L1.16,141.33L2.31,142.07L2.89,142.07L4.63,141.54L5.21,139.87L6.36,142.98L6.94,142.98L7.52,142.98L8.1,140.23L9.25,133.63L9.83,127.83L11.57,128.17L12.15,125.47L12.72,125.9L13.3,120.5L14.46,114.5L15.04,114.5L16.19,114.77L16.77,106.29L17.35,108.86L17.93,107.44L19.09,107.44L19.67,103.69L20.24,103.79L20.82,102.7L22.56,93.12L23.14,93.12L24.29,107.31L24.87,105.4L25.45,104.42L26.03,121.91L27.18,121.91L27.76,152.8L28.34,137.9L28.92,138.41L29.5,165.55L30.65,156.87L31.23,156.87L32.97,138.4L33.55,130.34L34.7,129.84L35.28,129.84L35.86,129.84L36.44,136.53L37.02,140.92L37.6,136.59L38.75,127.46L39.33,127.46L39.91,116.97L40.49,124.83L42.22,147.74L42.8,147.74L43.38,147.74L43.96,138.9L44.54,138.65L45.11,140.82L45.69,138.36L46.27,126.78L47.43,126.78L48.01,130.91L49.16,141.96L49.74,138.92L50.9,137.01L51.48,137.01L52.06,145.83L52.63,142.77L53.21,143.95L53.79,162.99L54.95,174.15L55.53,174.15L56.1,156.56L56.68,165.62L57.26,165.87L57.84,159.17L59.57,159.17L60.15,171.23L61.89,148.61L62.47,163.65L63.62,163.65L64.2,162.43L64.78,151.16L65.36,156.91L65.94,149.19L66.51,152.42L67.67,152.42L68.25,146.82L68.83,141.21L69.41,142.23L69.99,144.41L71.14,149.72L71.72,149.72L72.3,150.09L72.88,161.25L73.46,159.68L74.03,153.41L75.77,153.71L76.35,157.6L76.93,159.28L77.5,163.85L78.08,163.72L78.66,154.99L79.82,154.99L80.4,152.49L80.97,152.42L81.55,147.63L82.71,140.04L83.29,140.04L83.87,140.04L84.45,138.25L85.02,143.32L85.6,141.68L86.76,143.09L87.34,143.09L87.92,143.09L88.49,135.26L89.07,139.96L89.65,138.58L90.23,140.55L91.39,142.09L91.96,142.09L92.54,142.09L93.12,152.39L93.7,144.34L94.28,150.96L95.43,145.19L96.01,145.19L98.9,127.29L99.48,127.29L101.22,127.18L101.8,130.32L102.38,131L102.95,133.23L104.11,133.23L104.69,135.93L106.42,149.75L107,146.62L108.16,146.62L108.74,155.24L109.32,154.44L109.89,158.79L111.05,154.75L111.63,154.75L112.21,154.75L112.79,153.81L113.94,157.29L114.52,152.51L115.68,149.89L116.26,149.89L117.41,137.72L117.99,143.48L119.15,135.09L119.73,135.09L120.31,135.09L120.88,133.91L122.04,130.37L122.62,133.91L124.93,134.44L125.51,129.25L126.67,121.75L127.25,123.75L128.4,123.75L128.98,127.54L129.56,124.69L130.14,126.83L130.72,127.03L131.29,123.45L132.45,123.45L133.03,122.41L133.61,119.08L134.19,120.26L134.77,122.22L135.34,127.38L136.5,127.38L137.08,130.67L137.66,127.72L138.24,131.34L139.39,118.02L139.97,118.02L140.55,118.02L141.13,115.67L141.71,114L142.28,116.33L142.86,118.34L143.44,114.84L144.6,114.84L145.18,108.02L145.75,107.64L146.33,106.05L147.49,110.25L148.07,110.25L150.38,109.98L150.96,109.43L152.12,111.52L152.7,111.52L153.27,113.08L153.85,110.09L154.43,109.35L155.01,105.49L156.74,105.26L157.32,107.69L159.64,89.79L160.21,89.79L160.79,89.79L161.37,94.56L162.53,99.2L163.11,97.77L164.26,97.28L164.84,97.28L166.58,87.56L167.16,92.84L168.31,97.58L168.89,97.58L169.47,96.53L170.05,98.01L171.2,134.22L171.78,126.67L172.94,126.67L173.52,129.02L174.1,114.62L174.67,117.03L175.25,125.63L176.41,123.93L176.99,123.93L178.14,130.57L178.72,146.55L179.3,136.01L179.88,143.8L181.04,143.8L181.61,150.24L183.35,125.6L183.93,128.49L185.09,128.49L185.66,123.47L186.24,118.92L186.82,104.59L187.4,104.3L187.98,109.61L189.13,109.61L189.71,125.43L190.87,133.49L191.45,128L192.6,124.75L193.18,124.75L194.92,149.67L195.5,149.67L196.65,154.37L197.23,154.37L198.97,125.98L199.54,126.7L200.12,121.45L201.28,121.45L201.86,113.89L203.02,134.89L203.59,136.98L204.75,151.66L205.33,151.66L205.91,150.76L206.49,152.15L207.64,146.19L208.22,159.24L209.38,159.24L209.96,172.58L210.53,170.41L211.11,179.66L212.85,202.74L213.43,202.74L214.58,219.9L215.16,191.36L215.74,184.51L216.32,186.52L216.9,186.52L217.48,186.52L218.05,179.56L219.21,179.06L219.79,196.41L220.95,176.78L221.52,176.78L222.1,174.2L222.68,167.47L223.84,161.83L224.42,161.99L224.99,161.99L225.57,161.99L226.15,164.25L229.04,143.32L229.62,143.32L230.2,143.32L230.78,151.25L232.51,142.51L233.09,142.51L233.67,142.51L234.25,148L234.83,146.64L235.41,135.21L235.98,135.61L236.56,133.93L237.72,133.93L238.3,129.31L238.88,124.79L239.45,125.35L240.03,131.15L241.19,132.81L241.77,132.81L242.35,134.21L242.92,124.42L243.5,121.33L244.08,124.06L245.24,112.39L245.82,112.39L246.97,112.18L247.55,110.52L248.13,113.25L248.71,108.49L249.86,108.49L250.44,106.91L251.6,109.72L252.18,111.53L253.34,108.63L253.91,108.63L255.65,117.91L256.23,123.17L257.38,123.77L257.96,123.77L258.54,118.5L259.12,121.03L260.85,113.3L261.43,113.3L262.01,113.3L262.59,111.58L263.17,112.29L263.75,116.01L264.32,110.31L264.9,122.4L266.64,122.02L267.22,118.32L267.8,119.17L268.37,116.75L269.53,111.2L270.11,111.2L270.69,102.54L271.27,104.62L271.84,103.59L273,98.16L273.58,98.16L274.16,98.16L274.74,100.36L275.31,105.37L275.89,105.2L276.47,105.57L277.63,98.49L278.21,98.49L278.78,99.22L279.36,97.43L279.94,97.51L280.52,94.62L282.25,94.62L282.83,95.9L283.41,92.08L283.99,93.64L284.57,97.18L285.15,95.05L286.88,94.76L287.46,93.75L288.62,101.24L289.2,96.06L290.35,96.06L290.93,97.8L291.51,110.24L292.09,110.18L292.67,113.84L293.82,110.84L294.4,110.84L294.98,127.06L295.56,121.62L296.71,112.93L297.29,115.53L298.45,115.53L299.03,117.74L299.61,112.55L300.19,115.2L300.76,122.72L301.34,120.21L303.08,120.21L303.66,126.47L305.39,140.47L305.97,140.47L307.13,140.34L307.7,126.88L310.02,109.75L310.6,109.75L311.17,107.68L311.75,108.05L312.33,109.2L312.91,106.52L313.49,106.97L314.07,106.97L315.22,106.37L315.8,97.09L316.38,96.08L316.96,89.53L318.12,90.43L318.69,90.43L319.27,90.21L319.85,94.92L321.01,95.49L321.59,93.56L322.74,93.56L323.32,90.47L323.9,88.65L324.48,83.94L325.06,83.94L325.63,85.09L326.79,85.09L327.37,88.14L327.95,88.74L328.53,86.72L330.26,74.32L330.84,74.32L331.42,73.61L332,74.23L333.15,77.19L333.73,79L335.47,78.53L336.05,73.87L337.2,79.34L337.78,77.99L338.94,77.99L339.52,77.23L340.09,77.84L340.67,86.61L341.83,96.58L342.41,96.58L342.99,96.58L343.56,116.74L345.3,99.39L345.88,101.77L347.03,101.77L347.61,112.05L348.19,101.97L348.77,123.01L349.35,120.38L349.93,112.32L351.08,112.32L351.66,105.76L352.24,110.31L352.82,104L353.4,102.7L353.98,119.08L355.13,119.08L355.71,111.98L356.29,115.16L356.87,108.38L358.02,98.73L358.6,98.73L359.76,98.73L360.34,106.22L362.07,88.37L362.65,88.37L363.23,88.37L363.81,87.37L364.39,85.43L364.96,79.45L366.7,77.28L367.28,77.28L367.86,81.03L368.44,80.14L369.01,79.18L369.59,80.56L370.17,84.75L371.91,84.36L372.48,88.1L373.06,83.82L373.64,85.91L374.8,87.77L375.38,87.77L375.95,85.23L376.53,94.27L377.11,107.26L377.69,104.04L378.27,94.25L379.42,94.25L380,96.76L380.58,105.02L381.16,100.23L382.89,87.87L383.47,87.87L384.05,88.64L384.63,82.4L385.21,83L385.79,82.37L386.94,89.09L387.52,89.09L388.1,87.58L388.68,88.62L389.26,87.41L389.84,88.16L390.99,84.15L391.57,84.15L393.31,78.14L393.88,81.83L395.04,73.92L395.62,73.92L396.78,70.1L397.35,70.1L398.51,65.15L399.09,65.15L400.83,64.88L401.4,62.46L401.98,62.5L402.56,56.64L403.72,56.64L404.3,55.82L406.03,62.91L406.61,60.04L407.77,60.04L408.34,55.02L410.08,52.46L410.66,55.42L411.81,55.42L412.39,62.47L412.97,69.83L413.55,65.97L414.13,65.24L414.71,56.37L415.86,56.37L416.44,59.14L417.02,59.88L417.6,59.1L418.76,53.21L419.33,53.21L419.91,53.21L420.49,50.57L421.07,49.75L421.65,50.48L422.8,44.81L423.38,44.81L423.96,44.81L424.54,42.28L425.7,43.22L426.27,40.44L427.43,39.81L428.01,39.81L428.59,44.62L429.17,42.62L429.74,42.62L430.32,33.94L431.48,40.09L432.06,40.09L432.64,38.29L433.22,41.43L434.37,31.62L434.95,35.12L436.11,35.12L436.69,32.93L437.26,32.08L437.84,29.7L439,21.34L439.58,21.34L440.73,21.34L441.31,25.34L442.47,26.28L443.05,30.76L444.2,30.76L444.78,42.69L446.52,34.18L447.1,50.04L448.25,50.04L448.83,46.26L450.57,20.51L451.15,27.8L452.3,27.8L452.88,23.22L453.46,23.23L454.04,16L455.19,20.03L455.77,20.03L456.93,20.03L457.51,24.39L458.09,21.34L458.66,24.71L459.82,30.69L460.4,30.69L462.71,115.46L463.29,124.85L464.45,124.85L465.03,90.84L465.6,111.5L466.18,80.66L467.34,112.88L467.92,112.88L468.5,112.88L469.08,165.8L469.65,135.13L470.23,173.62L470.81,235.45L471.39,183.28L472.55,183.28L473.12,262.04L473.7,234.48L474.28,269.65L474.86,264.71L475.44,288.7L476.59,288.7L477.17,304L478.91,199.93L479.49,223.99L480.64,223.99L481.22,205.83L481.8,216.62L482.38,242.2L482.96,229.85L483.54,239.34L484.69,239.34L485.27,196.57L485.85,197.26L486.43,176.77L487.58,169.26L488.16,169.26L488.74,169.26L489.32,177.89L489.9,163.2L490.48,174.91L491.05,174.03L491.63,155.51L492.79,155.51L493.37,171.07L493.95,187.67L494.52,175.66L495.1,174.62L495.68,167.79L496.84,167.79L497.42,158.37L497.99,159.21L498.57,145.23L500.31,169.14L500.89,169.14L501.47,168.46L502.04,164.96L502.62,170.7L503.2,165.14L504.36,153.18L504.94,153.18L505.51,156.05L506.09,168.06L506.67,181.65" style="vector-effect: non-scaling-stroke; fill: none; stroke: rgb(239, 85, 59); stroke-opacity: 1; stroke-width: 2px; opacity: 1;"/></g><g class="points"/><g class="text"/></g><g class="trace scatter trace1a96b5" style="stroke-miterlimit: 2; opacity: 1;"><g class="fills"/><g class="errorbars"/><g class="lines"><path class="js-line" d="M0,192.67L0.58,193.22L1.16,191.89L2.89,192.2L3.47,192.2L4.05,192.91L4.63,192.38L5.21,191.15L5.78,194.64L7.52,194.64L8.1,189.07L10.41,177.2L10.99,177.2L12.15,175.16L12.72,175.93L14.46,166.4L15.04,166.4L15.62,166.4L16.19,168.86L16.77,162.31L17.35,163.45L17.93,160.37L19.09,160.37L19.67,154.69L20.24,153.14L20.82,153.54L21.4,153.11L22.56,144.68L23.14,144.68L24.29,157.33L24.87,156.98L25.45,157.44L26.61,172.45L27.18,172.45L27.76,200.82L28.34,189.24L28.92,192.62L29.5,217.86L30.65,208.19L31.23,208.19L33.55,180.2L34.13,179.95L35.86,179.95L36.44,183.95L37.02,187.69L37.6,187.03L38.17,176.16L39.33,176.16L39.91,168.07L41.64,193.62L42.22,190.22L43.38,190.22L43.96,182.77L45.69,178.25L46.27,166.32L47.43,166.32L48.01,167.21L49.74,176.16L50.32,174.98L51.48,174.98L52.06,184.78L52.63,183.78L53.21,185.03L54.95,216.04L55.53,216.04L56.1,198.41L56.68,209.93L57.26,211.84L57.84,202.85L59.57,202.85L60.15,217.64L61.89,197.34L62.47,211.97L63.62,211.97L64.2,209.79L64.78,198.84L65.36,202.52L65.94,197.05L66.51,198.98L67.67,198.98L68.25,193.58L69.41,185.86L69.99,189.75L71.14,195.51L71.72,195.51L72.3,195.47L72.88,204.43L73.46,203.22L74.03,196.31L75.19,195.57L75.77,195.57L76.35,201.05L76.93,199.35L78.08,205.64L78.66,197.19L79.82,197.19L80.4,194.88L80.97,195.06L81.55,188.58L82.71,181.07L83.29,181.07L84.45,180.47L85.02,185.15L85.6,182.39L86.18,182.98L86.76,184.77L87.92,184.77L88.49,179.75L89.07,181.9L89.65,179.68L91.39,182.68L91.96,182.68L92.54,182.68L93.12,190.56L93.7,182L94.28,186.7L95.43,179.34L96.01,179.34L97.75,169.88L98.33,170.38L98.9,168.21L100.64,167.46L101.22,166.25L101.8,169.06L102.38,167.34L103.53,168.05L104.11,168.05L105.27,172.33L105.85,171.15L106.42,175.55L107,174.26L107.58,174.26L108.16,174.26L108.74,183.74L109.32,182.24L109.89,188.12L111.05,183.42L111.63,183.42L112.21,183.42L112.79,181.33L113.94,184.71L114.52,178.84L115.68,173.03L116.26,173.03L117.41,164.5L117.99,169.47L119.15,162.62L119.73,162.62L120.88,163.35L121.46,160.56L122.04,159.04L122.62,161.83L123.78,162.49L124.35,162.49L124.93,161.2L125.51,157.84L126.09,151.4L126.67,153.57L127.82,158.23L128.4,158.23L128.98,162.3L129.56,158.87L130.14,159.6L130.72,156.13L131.87,152.84L132.45,152.84L133.61,148.3L134.19,148.49L134.77,149.52L135.92,154.61L136.5,154.61L137.08,157.45L137.66,152.93L138.24,158.35L138.81,152.75L139.97,150.38L140.55,150.38L141.71,147.17L142.28,147.45L142.86,148.67L144.02,144.23L144.6,144.23L146.33,134.36L146.91,137.6L149.22,137.5L149.8,138.7L152.12,144.98L152.7,144.98L154.43,140.66L155.01,136.83L156.74,136.63L157.32,140.69L159.06,130.17L159.64,130.44L160.79,130.44L161.37,133.03L161.95,133.98L162.53,136.38L163.68,134.38L164.26,134.38L164.84,134.38L165.42,131.72L166.58,131.49L167.16,137.48L168.31,141.5L168.89,141.5L170.05,142.81L170.63,166.54L171.2,180.91L171.78,171.19L172.94,171.19L173.52,175.29L174.1,160.47L174.67,160.64L175.25,170.78L176.99,171.03L177.57,174.01L178.14,177.82L178.72,199.03L179.3,186.63L179.88,198.38L181.04,198.38L181.61,202.75L183.35,177.9L183.93,182.24L185.09,182.24L185.66,178.42L186.24,174.12L186.82,159.47L187.4,161.24L187.98,167.71L189.13,167.71L189.71,181.45L190.29,182.46L190.87,187.63L192.03,178.93L192.6,178.93L193.18,178.93L193.76,190.35L194.34,202.59L194.92,200.58L195.5,200.58L196.65,204.93L197.23,204.93L198.97,177.04L199.54,178.55L200.7,172.94L201.28,172.94L201.86,165.37L202.44,188.01L203.02,188.01L203.59,189.04L204.75,204.8L205.33,204.8L206.49,203.87L207.06,200.29L207.64,200.42L208.22,213.11L209.38,213.11L209.96,226.65L210.53,226.59L211.11,236.42L212.85,259.07L213.43,259.07L214.58,275.49L215.16,246.26L215.74,240.96L216.32,241.74L216.9,241.74L217.48,241.74L218.05,236.45L218.63,236.45L219.21,235.65L219.79,251.23L220.37,230.16L221.52,230.16L222.1,225.71L223.84,213.94L224.42,214.03L225.57,214.03L226.15,217.45L228.46,195.37L229.04,195.37L230.2,195.37L230.78,204.85L231.93,202.48L232.51,196.86L233.67,196.86L234.25,202.1L234.83,203.07L235.41,192.77L236.56,186.39L237.14,186.39L237.72,186.39L238.3,181.79L238.88,178.57L239.45,180.1L240.03,186.51L240.61,186.05L241.19,186.05L242.35,185.57L242.92,176.81L243.5,174.73L244.08,176.56L245.24,169.07L245.82,169.07L246.39,169.07L246.97,168.03L247.55,166.79L248.13,169.25L249.29,164.79L249.86,164.79L250.44,163.93L251.02,164.48L251.6,164.86L252.18,166.84L253.34,162.03L253.91,162.03L255.65,170.11L256.23,175.76L257.38,177.22L257.96,177.22L259.12,165.08L259.7,160.21L260.28,160.83L260.85,157.32L262.01,157.32L262.59,154.69L263.17,154.79L263.75,156.88L264.32,149.19L264.9,162.77L266.64,163.36L267.22,158.32L267.8,161.61L268.37,159.08L269.53,154.33L270.11,154.33L271.27,146.09L271.84,144.55L273.58,139.7L274.16,139.7L274.74,138.94L275.31,143.35L277.63,136.02L278.21,136.02L279.36,136.11L279.94,137.77L281.1,136.62L281.68,136.62L282.83,135.88L283.41,129.44L284.57,131.32L285.15,127.88L286.3,127.88L286.88,127.09L287.46,126.39L288.04,131.93L288.62,133.49L289.2,126.44L290.35,126.44L290.93,129.74L292.09,143.04L292.67,145.22L293.82,142.54L294.4,142.54L294.98,159.98L295.56,154.33L296.71,143.82L297.29,148.03L298.45,148.03L299.03,152.87L299.61,146.82L300.19,148.84L300.76,157.38L301.34,156.42L301.92,156.42L303.08,156.42L303.66,162.35L305.39,174.97L305.97,174.97L306.55,174.97L307.13,176.88L308.28,156.4L308.86,152.05L310.02,144.57L310.6,144.57L311.17,141.21L311.75,141.46L312.33,142.94L312.91,139.98L313.49,141.15L315.22,140.47L315.8,133.43L316.38,131.25L316.96,124.3L318.12,125.23L318.69,125.23L319.27,126.51L319.85,133.52L320.43,134.43L321.01,131.63L322.16,127.41L322.74,127.41L324.48,113.86L325.06,113.86L326.21,115.21L326.79,115.21L327.37,118.84L327.95,117.92L328.53,114.55L330.26,109.36L330.84,109.36L331.42,109.23L332,111.8L332.57,116.72L333.15,114.04L334.31,118.67L334.89,118.67L335.47,116.56L336.05,111.44L336.62,107.91L337.2,111.89L338.36,106.33L338.94,106.33L340.09,109.51L340.67,117.73L342.41,129.85L342.99,129.85L343.56,151.74L344.14,142.45L344.72,141.9L345.3,128.33L346.46,133.21L347.03,133.21L347.61,142.22L348.19,131.28L348.77,152.77L349.35,151.02L349.93,140.72L351.08,140.72L351.66,131.95L352.24,137.75L352.82,131.76L353.4,132.13L353.98,151.14L355.13,151.14L355.71,143.3L356.29,145.61L356.87,140.9L358.02,131.25L358.6,131.25L359.76,131.25L360.34,136.31L362.07,118.15L362.65,118.15L364.39,117.98L364.96,112.58L365.54,110.41L366.12,110.96L366.7,110.96L367.28,110.96L367.86,113.32L369.01,111.12L369.59,111.11L370.75,114.8L371.33,114.8L371.91,114.87L372.48,121.18L373.06,116.6L373.64,118.42L374.8,122.39L375.38,122.39L375.95,118.64L376.53,127.79L377.11,140.99L377.69,135.22L378.85,124.84L379.42,124.84L380,128.16L380.58,139.62L382.89,120.26L383.47,120.26L384.05,121.3L384.63,113.89L385.21,115.4L385.79,113.32L386.94,116.27L387.52,116.27L388.1,111.13L388.68,113.82L390.99,107.16L391.57,107.16L392.15,102.93L392.73,103.56L393.31,101.09L393.88,103.39L394.46,96.04L395.62,96.04L396.2,93.19L396.78,94.1L397.35,93.56L399.09,89.47L399.67,89.47L400.25,91L400.83,89.79L401.98,88.58L402.56,82.61L404.87,82.68L405.45,85.62L406.03,86.85L406.61,85.16L407.77,85.16L408.34,79.31L410.08,74.29L410.66,77.47L411.81,77.47L412.39,84.26L412.97,89.44L413.55,84.54L414.13,83.37L414.71,76.23L415.86,76.23L416.44,78.72L417.02,79.59L417.6,77.3L418.76,70.49L419.33,70.49L419.91,70.49L420.49,64.81L421.65,64.89L422.23,61.32L423.38,57.35L423.96,57.35L425.12,56.81L425.7,56.81L426.85,52.64L427.43,52.64L428.01,52.64L428.59,57.33L429.74,54.95L430.32,48.17L431.48,53.93L432.06,53.93L432.64,51.07L433.22,53.35L434.37,43.94L434.95,46.29L436.11,46.29L436.69,40.57L437.26,41.82L437.84,40.28L439,30.17L439.58,30.17L440.73,30.17L441.31,32.39L442.47,31.2L443.05,38.73L444.2,38.73L444.78,51.73L445.36,43.56L445.94,44.27L446.52,41.69L447.67,56.27L448.25,56.27L449.41,38.2L449.99,28.9L450.57,26.12L451.15,30.65L452.3,30.65L452.88,24.54L453.46,23.12L454.04,17.68L454.62,19.06L455.19,17.5L456.93,17.5L457.51,19.98L458.09,16L458.66,19.24L459.82,28.13L460.4,28.13L462.71,118.14L463.29,124.29L464.45,124.29L465.03,90.19L465.6,111.97L466.18,80.19L467.34,119.74L467.92,119.74L468.5,119.74L469.08,176.35L469.65,142.34L470.23,177.65L470.81,243.02L471.39,185.26L472.55,185.26L473.12,266.71L473.7,230.85L474.28,263.71L474.86,260.88L475.44,287.07L476.59,287.07L477.17,304L478.91,205.55L479.49,227.77L480.64,227.77L481.22,206.41L481.8,216.96L482.38,245.56L482.96,231.42L483.54,241.01L484.69,241.01L485.27,197.13L485.85,198.2L486.43,175.49L487.58,165.5L488.16,165.5L488.74,165.5L489.32,172.57L489.9,151.4L490.48,167.12L491.05,163.06L491.63,144.26L492.79,144.26L493.37,157.15L493.95,178.86L494.52,163.13L495.1,163.5L495.68,153.74L496.84,153.74L497.42,143.28L497.99,147.06L498.57,127.98L499.15,134.77L499.73,155.25L500.89,155.25L501.47,152.24L502.04,145.79L502.62,150.81L504.36,130.41L504.94,130.41L505.51,130.31L506.09,145.37L506.67,157.94" style="vector-effect: non-scaling-stroke; fill: none; stroke: rgb(0, 204, 150); stroke-opacity: 1; stroke-width: 2px; opacity: 1;"/></g><g class="points"/><g class="text"/></g></g></g></g><path class="xlines-above crisp" style="fill: none;" d="M0,0"/><path class="ylines-above crisp" style="fill: none;" d="M0,0"/><g class="overlines-above"><path class="xy2-x crisp" style="fill: none;" d="M0,0"/><path class="xy2-y crisp" style="fill: none;" d="M0,0"/></g><g class="xaxislayer-above"><g class="xtick"><text text-anchor="middle" x="0" y="433" transform="translate(87.52,0)" style="font-family: 'Franklin Gothic'; font-size: 12px; fill: rgb(42, 63, 95); fill-opacity: 1; white-space: pre;">Jan 2018</text></g><g class="xtick"><text text-anchor="middle" x="0" y="433" transform="translate(192.20999999999998,0)" style="font-family: 'Franklin Gothic'; font-size: 12px; fill: rgb(42, 63, 95); fill-opacity: 1; white-space: pre;">Jul 2018</text></g><g class="xtick"><text text-anchor="middle" x="0" y="433" transform="translate(298.63,0)" style="font-family: 'Franklin Gothic'; font-size: 12px; fill: rgb(42, 63, 95); fill-opacity: 1; white-space: pre;">Jan 2019</text></g><g class="xtick"><text text-anchor="middle" x="0" y="433" transform="translate(403.32,0)" style="font-family: 'Franklin Gothic'; font-size: 12px; fill: rgb(42, 63, 95); fill-opacity: 1; white-space: pre;">Jul 2019</text></g><g class="xtick"><text text-anchor="middle" x="0" y="433" transform="translate(509.74,0)" style="font-family: 'Franklin Gothic'; font-size: 12px; fill: rgb(42, 63, 95); fill-opacity: 1; white-space: pre;">Jan 2020</text></g></g><g class="yaxislayer-above"><g class="ytick"><text text-anchor="end" x="79" y="4.199999999999999" transform="translate(0,372.76)" style="font-family: 'Franklin Gothic'; font-size: 12px; fill: rgb(42, 63, 95); fill-opacity: 1; white-space: pre;">38</text></g><g class="ytick"><text text-anchor="end" x="79" y="4.199999999999999" transform="translate(0,307.31)" style="font-family: 'Franklin Gothic'; font-size: 12px; fill: rgb(42, 63, 95); fill-opacity: 1; white-space: pre;">40</text></g><g class="ytick"><text text-anchor="end" x="79" y="4.199999999999999" transform="translate(0,241.86)" style="font-family: 'Franklin Gothic'; font-size: 12px; fill: rgb(42, 63, 95); fill-opacity: 1; white-space: pre;">42</text></g><g class="ytick"><text text-anchor="end" x="79" y="4.199999999999999" transform="translate(0,176.41)" style="font-family: 'Franklin Gothic'; font-size: 12px; fill: rgb(42, 63, 95); fill-opacity: 1; white-space: pre;">44</text></g><g class="ytick"><text text-anchor="end" x="79" y="4.199999999999999" transform="translate(0,110.96000000000001)" style="font-family: 'Franklin Gothic'; font-size: 12px; fill: rgb(42, 63, 95); fill-opacity: 1; white-space: pre;">46</text></g></g><g class="overaxes-above"><g class="xy2-x"/><g class="xy2-y"><g class="y2tick"><text text-anchor="start" x="588.5999999999999" y="4.199999999999999" transform="translate(0,404)" style="font-family: 'Franklin Gothic'; font-size: 12px; fill: rgb(42, 63, 95); fill-opacity: 1; white-space: pre;">0</text></g><g class="y2tick"><text text-anchor="start" x="588.5999999999999" y="4.199999999999999" transform="translate(0,346.4)" style="font-family: 'Franklin Gothic'; font-size: 12px; fill: rgb(42, 63, 95); fill-opacity: 1; white-space: pre;">0.2</text></g><g class="y2tick"><text text-anchor="start" x="588.5999999999999" y="4.199999999999999" transform="translate(0,288.8)" style="font-family: 'Franklin Gothic'; font-size: 12px; fill: rgb(42, 63, 95); fill-opacity: 1; white-space: pre;">0.4</text></g><g class="y2tick"><text text-anchor="start" x="588.5999999999999" y="4.199999999999999" transform="translate(0,231.2)" style="font-family: 'Franklin Gothic'; font-size: 12px; fill: rgb(42, 63, 95); fill-opacity: 1; white-space: pre;">0.6</text></g><g class="y2tick"><text text-anchor="start" x="588.5999999999999" y="4.199999999999999" transform="translate(0,173.6)" style="font-family: 'Franklin Gothic'; font-size: 12px; fill: rgb(42, 63, 95); fill-opacity: 1; white-space: pre;">0.8</text></g><g class="y2tick"><text text-anchor="start" x="588.5999999999999" y="4.199999999999999" transform="translate(0,116)" style="font-family: 'Franklin Gothic'; font-size: 12px; fill: rgb(42, 63, 95); fill-opacity: 1; white-space: pre;">1</text></g></g></g></g><g class="subplot xy2"/></g><g class="polarlayer"/><g class="ternarylayer"/><g class="geolayer"/><g class="funnelarealayer"/><g class="pielayer"/><g class="treemaplayer"/><g class="sunburstlayer"/><g class="glimages"/><defs id="topdefs-86d7e3"><g class="clips"/><clipPath id="legend86d7e3"><rect width="412" height="29" x="0" y="0"/></clipPath></defs><g class="layer-above"><g class="imagelayer"/><g class="shapelayer"/></g><g class="infolayer"><g class="legend" pointer-events="all" transform="translate(80, 67.99999999999997)"><rect class="bg" shape-rendering="crispEdges" style="stroke: rgb(68, 68, 68); stroke-opacity: 1; fill: rgb(255, 255, 255); fill-opacity: 1; stroke-width: 0px;" width="412" height="29" x="0" y="0"/><g class="scrollbox" transform="translate(0, 0)" clip-path="url('#legend86d7e3')"><g class="groups"><g class="traces" style="opacity: 1;" transform="translate(0, 14.5)"><text class="legendtext user-select-none" text-anchor="start" x="40" y="4.680000000000001" style="font-family: 'Franklin Gothic'; font-size: 12px; fill: rgb(42, 63, 95); fill-opacity: 1; white-space: pre;">Trump Approve</text><g class="layers" style="opacity: 1;"><g class="legendfill"/><g class="legendlines"><path class="js-line" d="M5,0h30" style="fill: none; stroke: rgb(99, 110, 250); stroke-opacity: 1; stroke-width: 2px;"/></g><g class="legendsymbols"><g class="legendpoints"/></g></g><rect class="legendtoggle" pointer-events="all" x="0" y="-9.5" width="121.1875" height="19" style="cursor: pointer; fill: rgb(0, 0, 0); fill-opacity: 0;"/></g><g class="traces" style="opacity: 1;" transform="translate(123.6875, 14.5)"><text class="legendtext user-select-none" text-anchor="start" x="40" y="4.680000000000001" style="font-family: 'Franklin Gothic'; font-size: 12px; fill: rgb(42, 63, 95); fill-opacity: 1; white-space: pre;">Dow Jones Industrial Average</text><g class="layers" style="opacity: 1;"><g class="legendfill"/><g class="legendlines"><path class="js-line" d="M5,0h30" style="fill: none; stroke: rgb(239, 85, 59); stroke-opacity: 1; stroke-width: 2px;"/></g><g class="legendsymbols"><g class="legendpoints"/></g></g><rect class="legendtoggle" pointer-events="all" x="0" y="-9.5" width="193.234375" height="19" style="cursor: pointer; fill: rgb(0, 0, 0); fill-opacity: 0;"/></g><g class="traces" style="opacity: 1;" transform="translate(319.421875, 14.5)"><text class="legendtext user-select-none" text-anchor="start" x="40" y="4.680000000000001" style="font-family: 'Franklin Gothic'; font-size: 12px; fill: rgb(42, 63, 95); fill-opacity: 1; white-space: pre;">S&amp;P 500</text><g class="layers" style="opacity: 1;"><g class="legendfill"/><g class="legendlines"><path class="js-line" d="M5,0h30" style="fill: none; stroke: rgb(0, 204, 150); stroke-opacity: 1; stroke-width: 2px;"/></g><g class="legendsymbols"><g class="legendpoints"/></g></g><rect class="legendtoggle" pointer-events="all" x="0" y="-9.5" width="89.671875" height="19" style="cursor: pointer; fill: rgb(0, 0, 0); fill-opacity: 0;"/></g></g></g><rect class="scrollbar" rx="20" ry="3" width="0" height="0" style="fill: rgb(128, 139, 164); fill-opacity: 1;" x="0" y="0"/></g><g class="g-gtitle"><text class="gtitle" x="350" y="50" text-anchor="middle" dy="0em" style="font-family: 'Franklin Gothic'; font-size: 17px; fill: rgb(42, 63, 95); opacity: 1; font-weight: normal; white-space: pre;">Trump vs Companies from 2017-12-19</text></g><g class="g-xtitle"><text class="xtitle" x="333.79999999999995" y="460.6125" text-anchor="middle" style="font-family: 'Franklin Gothic'; font-size: 14px; fill: rgb(42, 63, 95); opacity: 1; font-weight: normal; white-space: pre;">Date</text></g><g class="g-ytitle"><text class="ytitle" transform="rotate(-90,40.121875,260)" x="40.121875" y="260" text-anchor="middle" style="font-family: 'Franklin Gothic'; font-size: 14px; fill: rgb(42, 63, 95); opacity: 1; font-weight: normal; white-space: pre;">Trump Estimate Approval %</text></g><g class="g-y2title"><text class="y2title" transform="rotate(-90,630.534375,260)" x="630.534375" y="260" text-anchor="middle" style="font-family: 'Franklin Gothic'; font-size: 14px; fill: rgb(42, 63, 95); opacity: 1; font-weight: normal; white-space: pre;">Normalized Adjust Closed</text></g></g></svg>