<svg class="main-svg" xmlns="http://www.w3.org/2000/svg" xmlns:xlink="http://www.w3.org/1999/xlink" width="700" height="500" style="" viewBox="0 0 700 500"><rect x="0" y="0" width="700" height="500" style="fill: rgb(255, 255, 255); fill-opacity: 1;"/><defs id="defs-740fca"><g class="clips"><clipPath id="clip740fcaxyplot" class="plotclip"><rect width="426" height="275"/></clipPath><clipPath class="axesclip" id="clip740fcax"><rect x="80" y="0" width="426" height="500"/></clipPath><clipPath class="axesclip" id="clip740fcay"><rect x="0" y="60" width="700" height="275"/></clipPath><clipPath class="axesclip" id="clip740fcaxy"><rect x="80" y="60" width="426" height="275"/></clipPath></g><g class="gradients"/></defs><g class="bglayer"><rect class="bg" x="80" y="60" width="426" height="275" style="fill: rgb(229, 236, 246); fill-opacity: 1; stroke-width: 0;"/></g><g class="layer-below"><g class="imagelayer"/><g class="shapelayer"/></g><g class="cartesianlayer"><g class="subplot xy"><g class="layer-subplot"><g class="shapelayer"/><g class="imagelayer"/></g><g class="gridlayer"><g class="x"><path class="xgrid crisp" transform="translate(179.29000000000002,0)" d="M0,60v275" style="stroke: rgb(255, 255, 255); stroke-opacity: 1; stroke-width: 1px;"/><path class="xgrid crisp" transform="translate(272.18,0)" d="M0,60v275" style="stroke: rgb(255, 255, 255); stroke-opacity: 1; stroke-width: 1px;"/><path class="xgrid crisp" transform="translate(371.47,0)" d="M0,60v275" style="stroke: rgb(255, 255, 255); stroke-opacity: 1; stroke-width: 1px;"/><path class="xgrid crisp" transform="translate(467.56,0)" d="M0,60v275" style="stroke: rgb(255, 255, 255); stroke-opacity: 1; stroke-width: 1px;"/></g><g class="y"><path class="ygrid crisp" transform="translate(0,271.75)" d="M80,0h426" style="stroke: rgb(255, 255, 255); stroke-opacity: 1; stroke-width: 1px;"/><path class="ygrid crisp" transform="translate(0,222.25)" d="M80,0h426" style="stroke: rgb(255, 255, 255); stroke-opacity: 1; stroke-width: 1px;"/><path class="ygrid crisp" transform="translate(0,172.75)" d="M80,0h426" style="stroke: rgb(255, 255, 255); stroke-opacity: 1; stroke-width: 1px;"/><path class="ygrid crisp" transform="translate(0,123.25)" d="M80,0h426" style="stroke: rgb(255, 255, 255); stroke-opacity: 1; stroke-width: 1px;"/><path class="ygrid crisp" transform="translate(0,73.75)" d="M80,0h426" style="stroke: rgb(255, 255, 255); stroke-opacity: 1; stroke-width: 1px;"/></g></g><g class="zerolinelayer"><path class="yzl zl crisp" transform="translate(0,321.25)" d="M80,0h426" style="stroke: rgb(255, 255, 255); stroke-opacity: 1; stroke-width: 2px;"/></g><path class="xlines-below"/><path class="ylines-below"/><g class="overlines-below"/><g class="xaxislayer-below"/><g class="yaxislayer-below"/><g class="overaxes-below"/><g class="plot" transform="translate(80, 60)" clip-path="url('#clip740fcaxyplot')"><g class="scatterlayer mlayer"><g class="trace scatter trace9cbcea" style="stroke-miterlimit: 2; opacity: 1;"><g class="fills"/><g class="errorbars"/><g class="lines"><path class="js-line" d="M0,84.71L3.2,83.81L6.41,91.73L16.02,91.73L19.22,92.59L22.42,94.83L25.62,89.26L28.83,86.01L32.03,86.01L35.23,86.01L38.44,83.31L41.64,81.66L44.84,68.32L48.05,71.37L51.25,64.46L57.65,64.46L60.86,61.47L64.06,62.92L67.26,58.48L70.47,59.73L73.67,52.69L80.08,52.69L83.28,70.6L86.48,66.87L89.68,57.56L92.89,68.58L96.09,65.94L105.7,65.52L108.9,57.8L112.11,39.16L115.31,32.22L118.51,35.18L121.71,35.18L124.92,35.18L128.12,37.93L131.32,29.06L134.53,30.81L137.73,32.61L140.93,25.7L150.54,25.69L153.74,19.98L156.95,13.75L160.15,16.75L163.35,23.04L166.56,23.04L169.76,23.04L172.96,53.94L176.17,67.8L179.37,67.91L185.77,109L188.98,109L192.18,109L195.38,100.37L198.59,78.03L201.79,70.63L204.99,77.26L208.2,99.13L214.6,99.13L217.8,136.93L221.01,147.74L224.21,161.46L227.41,216L230.62,208.51L237.02,208.51L240.23,221.77L243.43,209.35L246.63,225L249.83,223.21L253.04,215.51L259.44,215.51L262.65,238.42L272.26,179.29L275.46,183.11L281.86,183.11L285.07,163.99L288.27,150.44L291.47,152.55L294.68,157.37L297.88,149.81L304.29,149.81L307.49,141.23L310.69,135.18L313.89,139.06L329.91,139.06L333.11,123.12L336.32,130.54L339.52,121.39L342.72,106.28L345.92,106.28L349.13,106.28L352.33,97.11L355.53,103.11L358.74,100.06L361.94,89.83L365.14,96.47L371.55,96.47L374.75,92.72L377.95,86.55L381.16,90.24L384.36,91.98L387.56,91.98L393.97,91.98L397.17,109.89L406.78,90.5L409.98,90.5L416.39,90.5L419.59,80.68L422.8,79.48L426,81.54" style="vector-effect: non-scaling-stroke; fill: none; stroke: rgb(99, 110, 250); stroke-opacity: 1; stroke-width: 2px; opacity: 1;"/></g><g class="points"/><g class="text"/></g><g class="trace scatter trace3df431" style="stroke-miterlimit: 2; opacity: 1;"><g class="fills"/><g class="errorbars"/><g class="lines"><path class="js-line" d="M0,66.85L3.2,57.54L6.41,60.43L16.02,60.43L19.22,61.26L22.42,64.7L25.62,64.25L28.83,60.92L32.03,60.92L35.23,60.92L38.44,57.46L41.64,55.87L44.84,55.94L48.05,49.7L51.25,45.35L57.65,45.35L60.86,41.08L64.06,45.79L67.26,47.63L70.47,51.67L73.67,48.79L80.08,48.79L83.28,63.2L86.48,51.79L89.68,53.05L92.89,51.97L96.09,55.31L102.5,55.31L105.7,56.2L112.11,34.63L115.31,27.87L118.51,21.99L121.71,21.99L124.92,21.99L128.12,23.2L131.32,13.75L134.53,17.14L137.73,18.65L140.93,18.91L147.34,18.91L150.54,21.89L153.74,31.87L156.95,25.39L163.35,30.22L166.56,30.22L169.76,30.22L172.96,52.81L176.17,64.67L179.37,58.83L185.77,95.76L188.98,95.76L192.18,95.76L195.38,93.5L198.59,87.55L201.79,85.08L204.99,96.01L208.2,117.5L214.6,117.5L217.8,159.31L221.01,168.13L224.21,172.85L227.41,225.27L230.62,233.23L237.02,233.23L240.23,256.89L243.43,249.89L246.63,261.25L249.83,245.56L253.04,241.32L259.44,241.32L262.65,260.41L265.85,230.78L269.05,210.08L272.26,199.82L275.46,216.45L281.86,216.45L285.07,214.09L288.27,190.84L291.47,208.47L294.68,203.88L297.88,209.81L304.29,209.81L307.49,197.59L310.69,181.75L313.89,183.15L317.1,178.32L320.3,178.32L329.91,178.32L333.11,168.45L336.32,190.36L339.52,190.79L342.72,177.89L345.92,177.89L349.13,177.89L352.33,179.15L355.53,195.96L358.74,180.01L361.94,173.08L365.14,178.09L371.55,178.09L374.75,172.66L381.16,136.72L384.36,138.15L393.97,138.15L397.17,161.53L400.38,156.36L403.58,158.33L406.78,150.29L409.98,146.22L416.39,146.22L419.59,148.03L422.8,144.08L426,157.96" style="vector-effect: non-scaling-stroke; fill: none; stroke: rgb(239, 85, 59); stroke-opacity: 1; stroke-width: 2px; opacity: 1;"/></g><g class="points"/><g class="text"/></g><g class="trace scatter tracefa8569" style="stroke-miterlimit: 2; opacity: 1;"><g class="fills"/><g class="errorbars"/><g class="lines"><path class="js-line" d="M0,66.03L3.2,51.06L6.41,60.58L16.02,60.58L19.22,55.85L22.42,56.44L25.62,55.9L28.83,60.69L32.03,60.69L35.23,60.69L38.44,58.43L41.64,57.46L44.84,59.74L48.05,49.56L51.25,44.01L57.65,44.01L60.86,45.9L64.06,44.14L67.26,49.78L70.47,56.43L73.67,49.34L80.08,49.34L83.28,66.18L86.48,60.13L89.68,57.96L96.09,61.38L99.29,61.38L105.7,61.53L108.9,46.01L112.11,35.3L115.31,33.42L118.51,34.27L121.71,34.27L124.92,34.27L128.12,30.96L131.32,20.32L134.53,18.04L137.73,20.78L140.93,19.72L147.34,19.72L150.54,18.61L153.74,22.5L156.95,13.75L160.15,14.3L163.35,22.37L169.76,22.37L172.96,55.3L176.17,67.13L179.37,61.86L185.77,107.96L188.98,107.96L192.18,107.96L195.38,103.77L198.59,97.49L201.79,93.57L204.99,102.12L208.2,124.18L214.6,124.18L217.8,159.41L221.01,162.94L224.21,171.82L227.41,236.88L230.62,226.98L237.02,226.98L240.23,246.23L243.43,228.47L246.63,242.94L249.83,225.3L253.04,235.49L259.44,235.49L262.65,261.25L265.85,223.96L269.05,198.44L272.26,188.54L275.46,209.54L281.86,209.54L285.07,197.37L288.27,183.84L291.47,206.82L294.68,206.33L297.88,215.53L304.29,215.53L307.49,192.47L310.69,172.27L313.89,176.89L323.5,177.2L326.71,177.2L329.91,177.2L333.11,162.1L336.32,184.59L339.52,183.29L342.72,162.63L345.92,162.63L349.13,162.63L352.33,159.93L355.53,179.36L358.74,165.44L361.94,159.64L365.14,170.94L371.55,170.94L374.75,160.61L381.16,135.63L384.36,144.97L393.97,144.97L397.17,174.57L400.38,161.15L403.58,167.98L406.78,161.33L409.98,150.97L416.39,150.97L419.59,153.7L422.8,148.18L426,167.47" style="vector-effect: non-scaling-stroke; fill: none; stroke: rgb(0, 204, 150); stroke-opacity: 1; stroke-width: 2px; opacity: 1;"/></g><g class="points"/><g class="text"/></g><g class="trace scatter trace0894c7" style="stroke-miterlimit: 2; opacity: 1;"><g class="fills"/><g class="errorbars"/><g class="lines"><path class="js-line" d="M0,43.36L3.2,36.38L6.41,33.83L16.02,33.94L19.22,36.08L22.42,35.11L25.62,36.03L28.83,34.6L32.03,34.6L38.44,33.89L41.64,35.89L44.84,37.82L48.05,36.6L51.25,29.93L54.45,29.93L60.86,30.01L64.06,34.08L67.26,32.09L70.47,41.57L73.67,35.7L76.87,35.7L80.08,35.7L83.28,49.14L86.48,46.4L89.68,47.05L92.89,53.19L96.09,56.35L105.7,56.51L108.9,54.33L112.11,44.17L115.31,42.91L118.51,55.08L121.71,55.08L124.92,55.08L128.12,62.25L131.32,52.74L134.53,48.71L137.73,52.35L140.93,50.82L150.54,51.41L153.74,52.42L160.15,42.76L163.35,47.17L169.76,47.17L172.96,74.64L176.17,75.97L179.37,81.08L182.57,110.36L185.77,118.76L192.18,118.76L195.38,114.82L198.59,97.01L201.79,97.09L204.99,110.17L208.2,136.38L214.6,136.38L217.8,188.68L221.01,187.6L224.21,205.54L227.41,249.91L230.62,233.51L237.02,233.51L240.23,258.72L243.43,253.66L246.63,261.25L249.83,241.22L253.04,237.25L259.44,237.25L262.65,260.15L265.85,233.99L269.05,224.16L272.26,218.47L275.46,235.47L281.86,235.47L285.07,221.53L288.27,203.64L291.47,195.43L294.68,197.08L297.88,197.45L304.29,197.45L307.49,188.01L310.69,178.46L313.89,183.76L329.91,183.76L333.11,172.14L336.32,186.5L339.52,194.01L342.72,179.9L345.92,179.9L349.13,179.9L352.33,184.2L355.53,194.47L358.74,185.14L361.94,177.29L365.14,184.48L371.55,184.48L374.75,181.97L377.95,173.49L381.16,161.55L384.36,159.32L387.56,159.32L393.97,159.32L397.17,176.9L400.38,168.67L403.58,177.45L406.78,170.87L409.98,161.12L416.39,161.12L419.59,164.52L422.8,161.2L426,170.02" style="vector-effect: non-scaling-stroke; fill: none; stroke: rgb(171, 99, 250); stroke-opacity: 1; stroke-width: 2px; opacity: 1;"/></g><g class="points"/><g class="text"/></g></g></g><g class="overplot"/><path class="xlines-above crisp" d="M0,0" style="fill: none;"/><path class="ylines-above crisp" d="M0,0" style="fill: none;"/><g class="overlines-above"/><g class="xaxislayer-above"><g class="xtick"><text text-anchor="middle" x="0" y="348" transform="translate(80,0)" style="font-family: 'Franklin Gothic'; font-size: 12px; fill: rgb(42, 63, 95); fill-opacity: 1; white-space: pre;">Jan 2020</text></g><g class="xtick"><text text-anchor="middle" x="0" y="348" transform="translate(179.29000000000002,0)" style="font-family: 'Franklin Gothic'; font-size: 12px; fill: rgb(42, 63, 95); fill-opacity: 1; white-space: pre;">Feb 2020</text></g><g class="xtick"><text text-anchor="middle" x="0" y="348" transform="translate(272.18,0)" style="font-family: 'Franklin Gothic'; font-size: 12px; fill: rgb(42, 63, 95); fill-opacity: 1; white-space: pre;">Mar 2020</text></g><g class="xtick"><text text-anchor="middle" x="0" y="348" transform="translate(371.47,0)" style="font-family: 'Franklin Gothic'; font-size: 12px; fill: rgb(42, 63, 95); fill-opacity: 1; white-space: pre;">Apr 2020</text></g><g class="xtick"><text text-anchor="middle" x="0" y="348" transform="translate(467.56,0)" style="font-family: 'Franklin Gothic'; font-size: 12px; fill: rgb(42, 63, 95); fill-opacity: 1; white-space: pre;">May 2020</text></g></g><g class="yaxislayer-above"><g class="ytick"><text text-anchor="end" x="79" y="4.199999999999999" transform="translate(0,321.25)" style="font-family: 'Franklin Gothic'; font-size: 12px; fill: rgb(42, 63, 95); fill-opacity: 1; white-space: pre;">0</text></g><g class="ytick"><text text-anchor="end" x="79" y="4.199999999999999" transform="translate(0,271.75)" style="font-family: 'Franklin Gothic'; font-size: 12px; fill: rgb(42, 63, 95); fill-opacity: 1; white-space: pre;">0.2</text></g><g class="ytick"><text text-anchor="end" x="79" y="4.199999999999999" transform="translate(0,222.25)" style="font-family: 'Franklin Gothic'; font-size: 12px; fill: rgb(42, 63, 95); fill-opacity: 1; white-space: pre;">0.4</text></g><g class="ytick"><text text-anchor="end" x="79" y="4.199999999999999" transform="translate(0,172.75)" style="font-family: 'Franklin Gothic'; font-size: 12px; fill: rgb(42, 63, 95); fill-opacity: 1; white-space: pre;">0.6</text></g><g class="ytick"><text text-anchor="end" x="79" y="4.199999999999999" transform="translate(0,123.25)" style="font-family: 'Franklin Gothic'; font-size: 12px; fill: rgb(42, 63, 95); fill-opacity: 1; white-space: pre;">0.8</text></g><g class="ytick"><text text-anchor="end" x="79" y="4.199999999999999" transform="translate(0,73.75)" style="font-family: 'Franklin Gothic'; font-size: 12px; fill: rgb(42, 63, 95); fill-opacity: 1; white-space: pre;">1</text></g></g><g class="overaxes-above"/></g></g><g class="polarlayer"/><g class="ternarylayer"/><g class="geolayer"/><g class="funnelarealayer"/><g class="pielayer"/><g class="treemaplayer"/><g class="sunburstlayer"/><g class="glimages"/><defs id="topdefs-740fca"><g class="clips"/><clipPath id="legend740fca"><rect width="173" height="102" x="0" y="0"/></clipPath><clipPath id="rangesliderx-740fca"><rect x="0" y="0" width="426" height="54"/></clipPath></defs><g class="layer-above"><g class="imagelayer"/><g class="shapelayer"/></g><g class="infolayer"><g class="legend" pointer-events="all" transform="translate(514.52, 60)"><rect class="bg" shape-rendering="crispEdges" width="173" height="102" x="0" y="0" style="stroke: rgb(68, 68, 68); stroke-opacity: 1; fill: rgb(255, 255, 255); fill-opacity: 1; stroke-width: 0px;"/><g class="scrollbox" transform="translate(0, 0)" clip-path="url('#legend740fca')"><text class="legendtitletext user-select-none" text-anchor="start" x="2" y="15.600000000000001" style="font-family: 'Franklin Gothic'; font-size: 12px; fill: rgb(42, 63, 95); fill-opacity: 1; white-space: pre;">stock</text><g class="groups" transform="translate(0, 0)"><g class="traces" transform="translate(0, 30.1)" style="opacity: 1;"><text class="legendtext user-select-none" text-anchor="start" x="40" y="4.680000000000001" style="font-family: 'Franklin Gothic'; font-size: 12px; fill: rgb(42, 63, 95); fill-opacity: 1; white-space: pre;">OMX Copenhagen</text><g class="layers" style="opacity: 1;"><g class="legendfill"/><g class="legendlines"><path class="js-line" d="M5,0h30" style="fill: none; stroke: rgb(99, 110, 250); stroke-opacity: 1; stroke-width: 2px;"/></g><g class="legendsymbols"><g class="legendpoints"/></g></g><rect class="legendtoggle" pointer-events="all" x="0" y="-9.5" width="167.28125" height="19" style="cursor: pointer; fill: rgb(0, 0, 0); fill-opacity: 0;"/></g></g><g class="groups" transform="translate(0, 0)"><g class="traces" transform="translate(0, 49.1)" style="opacity: 1;"><text class="legendtext user-select-none" text-anchor="start" x="40" y="4.680000000000001" style="font-family: 'Franklin Gothic'; font-size: 12px; fill: rgb(42, 63, 95); fill-opacity: 1; white-space: pre;">OMX Helsinki</text><g class="layers" style="opacity: 1;"><g class="legendfill"/><g class="legendlines"><path class="js-line" d="M5,0h30" style="fill: none; stroke: rgb(239, 85, 59); stroke-opacity: 1; stroke-width: 2px;"/></g><g class="legendsymbols"><g class="legendpoints"/></g></g><rect class="legendtoggle" pointer-events="all" x="0" y="-9.5" width="167.28125" height="19" style="cursor: pointer; fill: rgb(0, 0, 0); fill-opacity: 0;"/></g></g><g class="groups" transform="translate(0, 0)"><g class="traces" transform="translate(0, 68.1)" style="opacity: 1;"><text class="legendtext user-select-none" text-anchor="start" x="40" y="4.680000000000001" style="font-family: 'Franklin Gothic'; font-size: 12px; fill: rgb(42, 63, 95); fill-opacity: 1; white-space: pre;">OMX Stockhlom</text><g class="layers" style="opacity: 1;"><g class="legendfill"/><g class="legendlines"><path class="js-line" d="M5,0h30" style="fill: none; stroke: rgb(0, 204, 150); stroke-opacity: 1; stroke-width: 2px;"/></g><g class="legendsymbols"><g class="legendpoints"/></g></g><rect class="legendtoggle" pointer-events="all" x="0" y="-9.5" width="167.28125" height="19" style="cursor: pointer; fill: rgb(0, 0, 0); fill-opacity: 0;"/></g></g><g class="groups" transform="translate(0, 0)"><g class="traces" transform="translate(0, 87.1)" style="opacity: 1;"><text class="legendtext user-select-none" text-anchor="start" x="40" y="4.680000000000001" style="font-family: 'Franklin Gothic'; font-size: 12px; fill: rgb(42, 63, 95); fill-opacity: 1; white-space: pre;">Oslo Børs All-share Index</text><g class="layers" style="opacity: 1;"><g class="legendfill"/><g class="legendlines"><path class="js-line" d="M5,0h30" style="fill: none; stroke: rgb(171, 99, 250); stroke-opacity: 1; stroke-width: 2px;"/></g><g class="legendsymbols"><g class="legendpoints"/></g></g><rect class="legendtoggle" pointer-events="all" x="0" y="-9.5" width="167.28125" height="19" style="cursor: pointer; fill: rgb(0, 0, 0); fill-opacity: 0;"/></g></g></g><rect class="scrollbar" rx="20" ry="3" width="0" height="0" x="0" y="0" style="fill: rgb(128, 139, 164); fill-opacity: 1;"/></g><g class="g-gtitle"><text class="gtitle" x="350" y="30" text-anchor="middle" dy="0em" style="font-family: 'Franklin Gothic'; font-size: 17px; fill: rgb(42, 63, 95); opacity: 1; font-weight: normal; white-space: pre;">OMX Stockhlom ,OMX Helsinki ,Oslo Børs All-share Index ,OMX Copenhagen since 2020-01-01</text></g><g class="rangeslider-container" pointer-events="all" transform="translate(80,366)"><rect class="rangeslider-bg" x="0" y="0" shape-rendering="crispEdges" width="426" height="54" transform="translate(0,0)" fill="#E5ECF6" stroke="#444" stroke-width="0"/><g class="rangeslider-rangeplot xy" clip-path="url('#rangesliderx-740fca')"><g class="layer-subplot"><g class="shapelayer"/><g class="imagelayer"/></g><g class="gridlayer"><g class="x"/><g class="y"/></g><g class="zerolinelayer"/><path class="xlines-below"/><path class="ylines-below"/><g class="overlines-below"/><g class="xaxislayer-below"/><g class="yaxislayer-below"/><g class="overaxes-below"/><g class="plot"><g class="scatterlayer mlayer rangeplot"><g class="trace scatter trace9cbcea" style="stroke-miterlimit: 2; opacity: 1;"><g class="fills"/><g class="errorbars"/><g class="lines"><path class="js-line" d="M0,16.63L3.2,16.46L6.41,18.01L22.42,18.62L25.62,17.53L32.03,16.89L35.23,16.89L41.64,16.03L44.84,13.42L48.05,14.02L51.25,12.66L64.06,12.36L67.26,11.48L70.47,11.73L73.67,10.35L80.08,10.35L83.28,13.86L86.48,13.13L89.68,11.3L92.89,13.47L96.09,12.95L105.7,12.87L108.9,11.35L112.11,7.69L115.31,6.33L121.71,6.91L124.92,6.91L128.12,7.45L131.32,5.71L137.73,6.4L140.93,5.05L150.54,5.04L153.74,3.92L156.95,2.7L160.15,3.29L163.35,4.52L166.56,4.52L169.76,4.52L172.96,10.59L176.17,13.31L179.37,13.34L185.77,21.4L188.98,21.4L192.18,21.4L195.38,19.71L198.59,15.32L201.79,13.87L204.99,15.17L208.2,19.46L214.6,19.46L217.8,26.89L224.21,31.71L227.41,42.41L230.62,40.94L233.82,40.94L237.02,40.94L240.23,43.55L243.43,41.11L246.63,44.18L249.83,43.83L253.04,42.32L259.44,42.32L262.65,46.82L272.26,35.21L275.46,35.96L281.86,35.96L285.07,32.2L288.27,29.54L291.47,29.96L294.68,30.9L297.88,29.42L304.29,29.42L307.49,27.73L310.69,26.54L313.89,27.31L329.91,27.31L333.11,24.18L336.32,25.63L339.52,23.84L342.72,20.87L345.92,20.87L349.13,20.87L352.33,19.07L355.53,20.25L358.74,19.65L361.94,17.64L365.14,18.94L374.75,18.21L377.95,17L384.36,18.06L387.56,18.06L393.97,18.06L397.17,21.58L406.78,17.77L409.98,17.77L416.39,17.77L419.59,15.84L426,16.01" style="vector-effect: non-scaling-stroke; fill: none; stroke: rgb(99, 110, 250); stroke-opacity: 1; stroke-width: 2px; opacity: 1;"/></g><g class="points"/><g class="text"/></g><g class="trace scatter trace3df431" style="stroke-miterlimit: 2; opacity: 1;"><g class="fills"/><g class="errorbars"/><g class="lines"><path class="js-line" d="M0,13.13L3.2,11.3L6.41,11.87L19.22,12.03L22.42,12.7L35.23,11.96L38.44,11.28L44.84,10.98L48.05,9.76L51.25,8.91L54.45,8.91L57.65,8.91L60.86,8.07L70.47,10.15L73.67,9.58L80.08,9.58L83.28,12.41L86.48,10.17L89.68,10.42L92.89,10.2L96.09,10.86L105.7,11.03L108.9,9.13L112.11,6.8L115.31,5.47L118.51,4.32L121.71,4.32L128.12,4.56L131.32,2.7L137.73,3.66L140.93,3.71L150.54,4.3L153.74,6.26L156.95,4.99L160.15,5.53L166.56,5.93L169.76,5.93L172.96,10.37L176.17,12.7L179.37,11.55L182.57,15.08L185.77,18.8L188.98,18.8L195.38,18.36L198.59,17.19L201.79,16.71L204.99,18.85L208.2,23.07L211.4,23.07L214.6,23.07L217.8,31.28L224.21,33.94L227.41,44.24L230.62,45.8L233.82,45.8L237.02,45.8L240.23,50.44L243.43,49.07L246.63,51.3L249.83,48.22L253.04,47.39L259.44,47.39L262.65,51.14L265.85,45.32L269.05,41.25L272.26,39.24L275.46,42.5L285.07,42.04L288.27,37.47L291.47,40.94L294.68,40.03L297.88,41.2L301.08,41.2L304.29,41.2L307.49,38.8L310.69,35.69L313.89,35.96L317.1,35.02L320.3,35.02L329.91,35.02L333.11,33.08L336.32,37.38L339.52,37.47L342.72,34.93L345.92,34.93L352.33,35.18L355.53,38.48L358.74,35.35L361.94,33.99L365.14,34.97L368.35,34.97L371.55,34.97L374.75,33.9L381.16,26.85L384.36,27.13L393.97,27.13L397.17,31.72L400.38,30.7L403.58,31.09L409.98,28.71L413.19,28.71L419.59,29.07L422.8,28.29L426,31.02" style="vector-effect: non-scaling-stroke; fill: none; stroke: rgb(239, 85, 59); stroke-opacity: 1; stroke-width: 2px; opacity: 1;"/></g><g class="points"/><g class="text"/></g><g class="trace scatter tracefa8569" style="stroke-miterlimit: 2; opacity: 1;"><g class="fills"/><g class="errorbars"/><g class="lines"><path class="js-line" d="M0,12.97L3.2,10.03L6.41,11.9L16.02,11.9L19.22,10.97L25.62,10.98L28.83,11.92L44.84,11.73L48.05,9.73L51.25,8.64L54.45,8.64L64.06,8.67L67.26,9.78L70.47,11.08L73.67,9.69L80.08,9.69L83.28,13L89.68,11.38L92.89,11.68L102.5,12.05L105.7,12.08L112.11,6.93L115.31,6.56L124.92,6.73L128.12,6.08L131.32,3.99L134.53,3.54L140.93,3.87L144.14,3.87L150.54,3.65L153.74,4.42L156.95,2.7L160.15,2.81L163.35,4.39L166.56,4.39L169.76,4.39L172.96,10.86L176.17,13.18L179.37,12.15L185.77,21.2L188.98,21.2L192.18,21.2L195.38,20.38L201.79,18.37L204.99,20.05L208.2,24.38L211.4,24.38L214.6,24.38L217.8,31.3L221.01,31.99L224.21,33.74L227.41,46.52L230.62,44.57L237.02,44.57L240.23,48.35L243.43,44.86L246.63,47.71L249.83,44.24L253.04,46.24L259.44,46.24L262.65,51.3L265.85,43.98L269.05,38.97L272.26,37.02L275.46,41.15L281.86,41.15L285.07,38.76L288.27,36.1L291.47,40.61L294.68,40.52L297.88,42.32L304.29,42.32L307.49,37.79L310.69,33.83L313.89,34.73L329.91,34.79L333.11,31.83L336.32,36.25L339.52,35.99L342.72,31.93L345.92,31.93L352.33,31.4L355.53,35.22L358.74,32.49L361.94,31.35L365.14,33.57L368.35,33.57L371.55,33.57L374.75,31.54L381.16,26.63L384.36,28.47L393.97,28.47L397.17,34.28L400.38,31.64L403.58,32.98L409.98,29.64L413.19,29.64L419.59,30.18L422.8,29.1L426,32.89" style="vector-effect: non-scaling-stroke; fill: none; stroke: rgb(0, 204, 150); stroke-opacity: 1; stroke-width: 2px; opacity: 1;"/></g><g class="points"/><g class="text"/></g><g class="trace scatter trace0894c7" style="stroke-miterlimit: 2; opacity: 1;"><g class="fills"/><g class="errorbars"/><g class="lines"><path class="js-line" d="M0,8.51L3.2,7.14L6.41,6.64L41.64,7.05L44.84,7.43L48.05,7.19L51.25,5.88L60.86,5.89L64.06,6.69L67.26,6.3L70.47,8.16L73.67,7.01L76.87,7.01L80.08,7.01L83.28,9.65L89.68,9.24L92.89,10.44L99.29,11.07L102.5,11.07L108.9,10.67L112.11,8.67L115.31,8.43L118.51,10.82L124.92,10.82L128.12,12.22L131.32,10.36L134.53,9.57L137.73,10.28L140.93,9.98L153.74,10.29L156.95,9.24L160.15,8.4L163.35,9.26L169.76,9.26L172.96,14.66L179.37,15.92L182.57,21.67L185.77,23.32L188.98,23.32L192.18,23.32L195.38,22.55L198.59,19.05L201.79,19.07L204.99,21.63L208.2,26.78L214.6,26.78L217.8,37.05L221.01,36.84L224.21,40.36L227.41,49.07L230.62,45.85L237.02,45.85L240.23,50.8L243.43,49.81L246.63,51.3L249.83,47.37L253.04,46.59L259.44,46.59L262.65,51.08L265.85,45.95L269.05,44.02L272.26,42.9L275.46,46.24L281.86,46.24L285.07,43.5L288.27,39.99L291.47,38.38L301.08,38.77L304.29,38.77L310.69,35.04L313.89,36.08L329.91,36.08L333.11,33.8L336.32,36.62L339.52,38.1L342.72,35.33L345.92,35.33L349.13,35.33L352.33,36.17L355.53,38.19L358.74,36.35L361.94,34.81L365.14,36.22L374.75,35.73L377.95,34.07L381.16,31.72L384.36,31.29L393.97,31.29L397.17,34.74L400.38,33.12L403.58,34.85L409.98,31.64L413.19,31.64L422.8,31.65L426,33.39" style="vector-effect: non-scaling-stroke; fill: none; stroke: rgb(171, 99, 250); stroke-opacity: 1; stroke-width: 2px; opacity: 1;"/></g><g class="points"/><g class="text"/></g></g></g><g class="overplot"/><path class="xlines-above crisp" style="fill: none;"/><path class="ylines-above crisp" style="fill: none;"/><g class="overlines-above"/><g class="xaxislayer-above"/><g class="yaxislayer-above"/><g class="overaxes-above"/></g><rect class="rangeslider-mask-min" x="0" y="0" shape-rendering="crispEdges" height="54" width="0" style="fill: rgb(0, 0, 0); fill-opacity: 0.4;"/><rect class="rangeslider-mask-max" y="0" shape-rendering="crispEdges" height="54" x="426" width="0" style="fill: rgb(0, 0, 0); fill-opacity: 0.4;"/><g class="rangeslider-grabber-min" transform="translate(-2.5,0.5)"><rect class="rangeslider-handle-min" x="0" width="4" rx="1" fill="#fff" stroke="#444" stroke-width="1" shape-rendering="crispEdges" y="14" height="27"/></g><g class="rangeslider-grabber-max" transform="translate(424.5,0.5)"><rect class="rangeslider-handle-max" x="0" width="4" rx="1" fill="#fff" stroke="#444" stroke-width="1" shape-rendering="crispEdges" y="14" height="27"/></g></g><g class="g-ytitle"><text class="ytitle" transform="rotate(-90,37.23125,197.5)" x="37.23125" y="197.5" text-anchor="middle" style="font-family: 'Franklin Gothic'; font-size: 14px; fill: rgb(42, 63, 95); opacity: 1; font-weight: normal; white-space: pre;">Stock</text></g><g class="g-xtitle"><text class="xtitle" x="293" y="451" text-anchor="middle" style="font-family: 'Franklin Gothic'; font-size: 14px; fill: rgb(42, 63, 95); opacity: 1; font-weight: normal; white-space: pre;">Date</text></g></g></svg>