<svg class="main-svg" xmlns="http://www.w3.org/2000/svg" xmlns:xlink="http://www.w3.org/1999/xlink" width="700" height="500" style="" viewBox="0 0 700 500"><rect x="0" y="0" width="700" height="500" style="fill: rgb(255, 255, 255); fill-opacity: 1;"/><defs id="defs-a373f9"><g class="clips"><clipPath id="clipa373f9xyplot" class="plotclip"><rect width="407" height="275"/></clipPath><clipPath class="axesclip" id="clipa373f9x"><rect x="80" y="0" width="407" height="500"/></clipPath><clipPath class="axesclip" id="clipa373f9y"><rect x="0" y="60" width="700" height="275"/></clipPath><clipPath class="axesclip" id="clipa373f9xy"><rect x="80" y="60" width="407" height="275"/></clipPath></g><g class="gradients"/></defs><g class="bglayer"><rect class="bg" x="80" y="60" width="407" height="275" style="fill: rgb(229, 236, 246); fill-opacity: 1; stroke-width: 0;"/></g><g class="layer-below"><g class="imagelayer"/><g class="shapelayer"/></g><g class="cartesianlayer"><g class="subplot xy"><g class="layer-subplot"><g class="shapelayer"/><g class="imagelayer"/></g><g class="gridlayer"><g class="x"><path class="xgrid crisp" transform="translate(174.86,0)" d="M0,60v275" style="stroke: rgb(255, 255, 255); stroke-opacity: 1; stroke-width: 1px;"/><path class="xgrid crisp" transform="translate(263.61,0)" d="M0,60v275" style="stroke: rgb(255, 255, 255); stroke-opacity: 1; stroke-width: 1px;"/><path class="xgrid crisp" transform="translate(358.47,0)" d="M0,60v275" style="stroke: rgb(255, 255, 255); stroke-opacity: 1; stroke-width: 1px;"/><path class="xgrid crisp" transform="translate(450.28,0)" d="M0,60v275" style="stroke: rgb(255, 255, 255); stroke-opacity: 1; stroke-width: 1px;"/></g><g class="y"><path class="ygrid crisp" transform="translate(0,256.15999999999997)" d="M80,0h407" style="stroke: rgb(255, 255, 255); stroke-opacity: 1; stroke-width: 1px;"/><path class="ygrid crisp" transform="translate(0,191.07)" d="M80,0h407" style="stroke: rgb(255, 255, 255); stroke-opacity: 1; stroke-width: 1px;"/><path class="ygrid crisp" transform="translate(0,125.99)" d="M80,0h407" style="stroke: rgb(255, 255, 255); stroke-opacity: 1; stroke-width: 1px;"/></g></g><g class="zerolinelayer"><path class="yzl zl crisp" transform="translate(0,321.25)" d="M80,0h407" style="stroke: rgb(255, 255, 255); stroke-opacity: 1; stroke-width: 2px;"/></g><path class="xlines-below"/><path class="ylines-below"/><g class="overlines-below"/><g class="xaxislayer-below"/><g class="yaxislayer-below"/><g class="overaxes-below"/><g class="plot" transform="translate(80, 60)" clip-path="url('#clipa373f9xyplot')"><g class="scatterlayer mlayer"><g class="trace scatter trace2277ef" style="stroke-miterlimit: 2; opacity: 1;"><g class="fills"/><g class="errorbars"/><g class="lines"><path class="js-line" d="M0,167.59L3.06,167.59L6.12,123.74L12.24,123.74L15.3,120.04L18.36,138.09L21.42,106.32L27.54,85.45L30.6,85.45L33.66,85.45L36.72,101.81L39.78,74.44L42.84,66.53L45.9,78.41L48.96,67.08L55.08,67.08L58.14,40.54L61.2,46.29L64.26,64L67.32,68.14L70.38,70.33L76.5,70.33L79.56,60.35L82.62,58.45L85.68,59.14L88.74,57.82L91.8,62.22L97.92,62.22L100.98,83.67L104.05,117.85L107.11,100.37L110.17,71.85L113.23,63.54L119.35,63.54L122.41,67.91L125.47,46.55L128.53,40.06L131.59,27.18L134.65,19.13L140.77,19.13L143.83,20.99L146.89,19.39L149.95,13.75L156.07,25.08L159.13,25.08L162.19,25.08L165.25,47.13L171.37,51.81L174.43,57.36L177.49,88.01L180.55,88.01L183.61,88.01L186.67,90.51L189.73,114L192.79,124.63L195.85,93.33L198.91,127.02L205.03,127.02L208.09,144.67L211.15,187.6L214.21,166.64L217.27,152L220.33,162.76L226.45,162.76L229.51,126.07L232.57,136.39L235.63,94.42L238.69,98.42L241.75,25.94L247.87,25.94L250.93,31.46L253.99,53.48L257.05,54.92L260.11,107.24L263.17,141.05L269.29,141.05L272.35,183.14L275.41,147.09L278.47,140.22L281.53,121.9L284.59,77.6L290.71,77.6L293.77,69.61L296.83,65.96L299.89,75.73L302.95,73.2L306.02,84.82L318.26,84.82L321.32,106.41L324.38,89.16L327.44,81.05L333.56,81.05L336.62,82.98L339.68,77.89L342.74,86.4L348.86,44.8L351.92,44.8L354.98,44.8L358.04,68L361.1,72L364.16,70.44L370.28,101.78L373.34,101.78L379.46,101.78L382.52,85.79L385.58,63.66L388.64,72.54L391.7,73.46L394.76,73.46L397.82,73.46L400.88,70.67L403.94,73.17L407,78.52" style="vector-effect: non-scaling-stroke; fill: none; stroke: rgb(99, 110, 250); stroke-opacity: 1; stroke-width: 2px; opacity: 1;"/></g><g class="points"/><g class="text"/></g><g class="trace scatter trace607d48" style="stroke-miterlimit: 2; opacity: 1;"><g class="fills"/><g class="errorbars"/><g class="lines"><path class="js-line" d="M0,191.84L12.24,192.2L15.3,192.57L18.36,195.88L21.42,185.88L24.48,186.15L27.54,188.32L33.66,188.32L36.72,174.12L39.78,168.51L42.84,171.08L48.96,163.56L52.02,163.56L55.08,163.56L58.14,156.95L61.2,159.37L64.26,172.6L67.32,172.91L70.38,182.95L100.98,182.98L104.05,211.02L110.17,195.32L113.23,194.32L119.35,194.32L122.41,204.48L128.53,192.7L131.59,194.72L134.65,196.51L137.71,196.51L140.77,196.51L143.83,199.71L146.89,197.46L149.95,203.03L153.01,203.36L156.07,211.61L162.19,211.61L165.25,212.85L168.31,213.56L171.37,216.16L174.43,217.27L177.49,205.43L183.61,205.43L186.67,201.29L189.73,204.21L192.79,191.41L195.85,192.87L198.91,183.08L205.03,183.08L208.09,181.44L211.15,186.28L214.21,189.61L217.27,190.94L220.33,213.63L226.45,213.63L229.51,206.64L232.57,201.88L235.63,206.31L238.69,219.41L241.75,239.09L247.87,239.09L250.93,234.98L253.99,233.86L257.05,224.45L260.11,240.94L263.17,228.02L269.29,228.02L272.35,235.14L275.41,236.38L278.47,230.69L281.53,236.41L284.59,231.26L290.71,231.26L293.77,233.86L296.83,233.86L299.89,218.89L302.95,225.38L306.02,218.05L312.14,218.05L315.2,215.74L318.26,221.09L321.32,220.02L324.38,225.9L327.44,229.85L333.56,229.85L336.62,227.73L342.74,227.28L345.8,231.23L348.86,225.48L351.92,225.48L354.98,225.48L358.04,230.53L361.1,231.94L364.16,229.63L367.22,228.76L370.28,224.22L385.58,224.29L388.64,237.78L391.7,231.46L394.76,231.46L397.82,231.46L400.88,228.02L403.94,236L407,230.91" style="vector-effect: non-scaling-stroke; fill: none; stroke: rgb(239, 85, 59); stroke-opacity: 1; stroke-width: 2px; opacity: 1;"/></g><g class="points"/><g class="text"/></g><g class="trace scatter trace702b42" style="stroke-miterlimit: 2; opacity: 1;"><g class="fills"/><g class="errorbars"/><g class="lines"><path class="js-line" d="M0,78.43L3.06,54.92L6.12,73.16L12.24,73.16L15.3,69.21L18.36,71.28L21.42,71.85L24.48,64.32L27.54,61.69L33.66,61.69L36.72,47.39L39.78,56.05L42.84,60.75L45.9,54.54L48.96,50.59L58.14,50.59L61.2,90.47L64.26,81.44L67.32,91.97L70.38,102.5L73.44,102.5L76.5,102.5L79.56,134.1L85.68,124.13L88.74,133.73L91.8,151.59L94.86,151.59L97.92,151.59L100.98,144.26L104.05,123.95L107.11,121.31L110.17,116.05L113.23,123.01L119.35,123.01L122.41,118.49L125.47,103.44L128.53,92.72L131.59,103.26L134.65,104.01L143.83,104.01L146.89,105.7L149.95,100.25L153.01,108.71L162.19,108.71L165.25,136.74L168.31,144.07L171.37,133.16L174.43,138.99L177.49,134.29L183.61,134.29L186.67,126.39L189.73,131.28L192.79,123.01L195.85,126.39L198.91,141.81L205.03,141.81L208.09,172.28L211.15,143.51L214.21,169.28L217.27,225.7L220.33,188.08L226.45,188.08L229.51,261.25L232.57,221.75L235.63,260.12L238.69,259.56L241.75,250.91L250.93,251.28L253.99,207.46L257.05,196.92L260.11,177.74L263.17,220.06L266.23,220.06L269.29,220.06L272.35,195.61L275.41,192.97L278.47,221.75L281.53,195.8L284.59,205.2L290.71,205.2L293.77,180.37L296.83,182.63L299.89,182.07L302.95,186.77L306.02,186.77L315.2,186.2L318.26,174.92L321.32,191.66L324.38,188.84L327.44,176.61L330.5,176.61L333.56,176.61L336.62,182.63L339.68,201.81L342.74,184.89L345.8,187.9L348.86,180.75L354.98,180.75L358.04,166.27L361.1,165.51L364.16,153.66L367.22,173.22L370.28,198.05L376.4,198.05L379.46,191.47L382.52,184.32L385.58,182.44L388.64,180.56L391.7,164.2L397.82,164.2L400.88,167.58L403.94,173.98L407,171.72" style="vector-effect: non-scaling-stroke; fill: none; stroke: rgb(0, 204, 150); stroke-opacity: 1; stroke-width: 2px; opacity: 1;"/></g><g class="points"/><g class="text"/></g></g></g><g class="overplot"/><path class="xlines-above crisp" d="M0,0" style="fill: none;"/><path class="ylines-above crisp" d="M0,0" style="fill: none;"/><g class="overlines-above"/><g class="xaxislayer-above"><g class="xtick"><text text-anchor="middle" x="0" y="348" transform="translate(80,0)" style="font-family: 'Franklin Gothic'; font-size: 12px; fill: rgb(42, 63, 95); fill-opacity: 1; white-space: pre;">Jan 2020</text></g><g class="xtick"><text text-anchor="middle" x="0" y="348" transform="translate(174.86,0)" style="font-family: 'Franklin Gothic'; font-size: 12px; fill: rgb(42, 63, 95); fill-opacity: 1; white-space: pre;">Feb 2020</text></g><g class="xtick"><text text-anchor="middle" x="0" y="348" transform="translate(263.61,0)" style="font-family: 'Franklin Gothic'; font-size: 12px; fill: rgb(42, 63, 95); fill-opacity: 1; white-space: pre;">Mar 2020</text></g><g class="xtick"><text text-anchor="middle" x="0" y="348" transform="translate(358.47,0)" style="font-family: 'Franklin Gothic'; font-size: 12px; fill: rgb(42, 63, 95); fill-opacity: 1; white-space: pre;">Apr 2020</text></g><g class="xtick"><text text-anchor="middle" x="0" y="348" transform="translate(450.28,0)" style="font-family: 'Franklin Gothic'; font-size: 12px; fill: rgb(42, 63, 95); fill-opacity: 1; white-space: pre;">May 2020</text></g></g><g class="yaxislayer-above"><g class="ytick"><text text-anchor="end" x="79" y="4.199999999999999" transform="translate(0,321.25)" style="font-family: 'Franklin Gothic'; font-size: 12px; fill: rgb(42, 63, 95); fill-opacity: 1; white-space: pre;">0</text></g><g class="ytick"><text text-anchor="end" x="79" y="4.199999999999999" transform="translate(0,256.15999999999997)" style="font-family: 'Franklin Gothic'; font-size: 12px; fill: rgb(42, 63, 95); fill-opacity: 1; white-space: pre;">0.2</text></g><g class="ytick"><text text-anchor="end" x="79" y="4.199999999999999" transform="translate(0,191.07)" style="font-family: 'Franklin Gothic'; font-size: 12px; fill: rgb(42, 63, 95); fill-opacity: 1; white-space: pre;">0.4</text></g><g class="ytick"><text text-anchor="end" x="79" y="4.199999999999999" transform="translate(0,125.99)" style="font-family: 'Franklin Gothic'; font-size: 12px; fill: rgb(42, 63, 95); fill-opacity: 1; white-space: pre;">0.6</text></g><g class="ytick"><text text-anchor="end" x="79" y="4.199999999999999" transform="translate(0,60.9)" style="font-family: 'Franklin Gothic'; font-size: 12px; fill: rgb(42, 63, 95); fill-opacity: 1; white-space: pre;">0.8</text></g></g><g class="overaxes-above"/></g></g><g class="polarlayer"/><g class="ternarylayer"/><g class="geolayer"/><g class="funnelarealayer"/><g class="pielayer"/><g class="treemaplayer"/><g class="sunburstlayer"/><g class="glimages"/><defs id="topdefs-a373f9"><g class="clips"/><clipPath id="legenda373f9"><rect width="193" height="83" x="0" y="0"/></clipPath><clipPath id="rangesliderx-a373f9"><rect x="0" y="0" width="407" height="54"/></clipPath></defs><g class="layer-above"><g class="imagelayer"/><g class="shapelayer"/></g><g class="infolayer"><g class="legend" pointer-events="all" transform="translate(495.14, 60)"><rect class="bg" shape-rendering="crispEdges" width="193" height="83" x="0" y="0" style="stroke: rgb(68, 68, 68); stroke-opacity: 1; fill: rgb(255, 255, 255); fill-opacity: 1; stroke-width: 0px;"/><g class="scrollbox" transform="translate(0, 0)" clip-path="url('#legenda373f9')"><text class="legendtitletext user-select-none" text-anchor="start" x="2" y="15.600000000000001" style="font-family: 'Franklin Gothic'; font-size: 12px; fill: rgb(42, 63, 95); fill-opacity: 1; white-space: pre;">stock</text><g class="groups" transform="translate(0, 0)"><g class="traces" transform="translate(0, 30.1)" style="opacity: 1;"><text class="legendtext user-select-none" text-anchor="start" x="40" y="4.680000000000001" style="font-family: 'Franklin Gothic'; font-size: 12px; fill: rgb(42, 63, 95); fill-opacity: 1; white-space: pre;">CNY/EUR</text><g class="layers" style="opacity: 1;"><g class="legendfill"/><g class="legendlines"><path class="js-line" d="M5,0h30" style="fill: none; stroke: rgb(99, 110, 250); stroke-opacity: 1; stroke-width: 2px;"/></g><g class="legendsymbols"><g class="legendpoints"/></g></g><rect class="legendtoggle" pointer-events="all" x="0" y="-9.5" width="187.265625" height="19" style="cursor: pointer; fill: rgb(0, 0, 0); fill-opacity: 0;"/></g></g><g class="groups" transform="translate(0, 0)"><g class="traces" transform="translate(0, 49.1)" style="opacity: 1;"><text class="legendtext user-select-none" text-anchor="start" x="40" y="4.680000000000001" style="font-family: 'Franklin Gothic'; font-size: 12px; fill: rgb(42, 63, 95); fill-opacity: 1; white-space: pre;">CNY/USD</text><g class="layers" style="opacity: 1;"><g class="legendfill"/><g class="legendlines"><path class="js-line" d="M5,0h30" style="fill: none; stroke: rgb(239, 85, 59); stroke-opacity: 1; stroke-width: 2px;"/></g><g class="legendsymbols"><g class="legendpoints"/></g></g><rect class="legendtoggle" pointer-events="all" x="0" y="-9.5" width="187.265625" height="19" style="cursor: pointer; fill: rgb(0, 0, 0); fill-opacity: 0;"/></g></g><g class="groups" transform="translate(0, 0)"><g class="traces" transform="translate(0, 68.1)" style="opacity: 1;"><text class="legendtext user-select-none" text-anchor="start" x="40" y="4.680000000000001" style="font-family: 'Franklin Gothic'; font-size: 12px; fill: rgb(42, 63, 95); fill-opacity: 1; white-space: pre;">iShares China Large-Cap ETF</text><g class="layers" style="opacity: 1;"><g class="legendfill"/><g class="legendlines"><path class="js-line" d="M5,0h30" style="fill: none; stroke: rgb(0, 204, 150); stroke-opacity: 1; stroke-width: 2px;"/></g><g class="legendsymbols"><g class="legendpoints"/></g></g><rect class="legendtoggle" pointer-events="all" x="0" y="-9.5" width="187.265625" height="19" style="cursor: pointer; fill: rgb(0, 0, 0); fill-opacity: 0;"/></g></g></g><rect class="scrollbar" rx="20" ry="3" width="0" height="0" x="0" y="0" style="fill: rgb(128, 139, 164); fill-opacity: 1;"/></g><g class="g-gtitle"><text class="gtitle" x="350" y="30" text-anchor="middle" dy="0em" style="font-family: 'Franklin Gothic'; font-size: 17px; fill: rgb(42, 63, 95); opacity: 1; font-weight: normal; white-space: pre;">CNY/EUR ,CNY/USD ,iShares China Large-Cap ETF since 2020-01-01</text></g><g class="rangeslider-container" pointer-events="all" transform="translate(80,366)"><rect class="rangeslider-bg" x="0" y="0" shape-rendering="crispEdges" width="407" height="54" transform="translate(0,0)" fill="#E5ECF6" stroke="#444" stroke-width="0"/><g class="rangeslider-rangeplot xy" clip-path="url('#rangesliderx-a373f9')"><g class="layer-subplot"><g class="shapelayer"/><g class="imagelayer"/></g><g class="gridlayer"><g class="x"/><g class="y"/></g><g class="zerolinelayer"/><path class="xlines-below"/><path class="ylines-below"/><g class="overlines-below"/><g class="xaxislayer-below"/><g class="yaxislayer-below"/><g class="overaxes-below"/><g class="plot"><g class="scatterlayer mlayer rangeplot"><g class="trace scatter trace2277ef" style="stroke-miterlimit: 2; opacity: 1;"><g class="fills"/><g class="errorbars"/><g class="lines"><path class="js-line" d="M0,32.91L3.06,32.91L6.12,24.3L15.3,23.57L18.36,27.12L21.42,20.88L24.48,18.65L27.54,16.78L30.6,16.78L33.66,16.78L36.72,19.99L39.78,14.62L42.84,13.06L45.9,15.4L48.96,13.17L55.08,13.17L58.14,7.96L61.2,9.09L64.26,12.57L70.38,13.81L73.44,13.81L76.5,13.81L79.56,11.85L88.74,11.35L91.8,12.22L97.92,12.22L100.98,16.43L104.05,23.14L107.11,19.71L110.17,14.11L113.23,12.48L119.35,12.48L122.41,13.34L125.47,9.14L128.53,7.87L134.65,3.76L137.71,3.76L146.89,3.81L149.95,2.7L156.07,4.92L159.13,4.92L162.19,4.92L165.25,9.25L174.43,11.26L177.49,17.28L186.67,17.77L189.73,22.39L192.79,24.47L195.85,18.33L198.91,24.94L201.97,24.94L205.03,24.94L208.09,28.41L211.15,36.84L214.21,32.72L217.27,29.85L220.33,31.96L226.45,31.96L229.51,24.76L232.57,26.78L235.63,18.54L238.69,19.33L241.75,5.09L247.87,5.09L250.93,6.18L253.99,10.5L257.05,10.78L260.11,21.06L263.17,27.7L269.29,27.7L272.35,35.96L275.41,28.88L278.47,27.53L281.53,23.94L284.59,15.24L290.71,15.24L293.77,13.67L296.83,12.95L299.89,14.87L302.95,14.37L306.02,16.66L318.26,16.66L321.32,20.89L324.38,17.51L327.44,15.92L336.62,16.29L339.68,15.29L342.74,16.97L345.8,12.63L348.86,8.8L351.92,8.8L354.98,8.8L358.04,13.35L361.1,14.14L364.16,13.83L370.28,19.99L373.34,19.99L379.46,19.99L382.52,16.85L385.58,12.5L388.64,14.24L397.82,14.43L400.88,13.88L407,15.42" style="vector-effect: non-scaling-stroke; fill: none; stroke: rgb(99, 110, 250); stroke-opacity: 1; stroke-width: 2px; opacity: 1;"/></g><g class="points"/><g class="text"/></g><g class="trace scatter trace607d48" style="stroke-miterlimit: 2; opacity: 1;"><g class="fills"/><g class="errorbars"/><g class="lines"><path class="js-line" d="M0,37.67L15.3,37.81L18.36,38.46L21.42,36.5L24.48,36.55L30.6,36.98L33.66,36.98L36.72,34.19L39.78,33.09L42.84,33.59L45.9,32.9L48.96,32.12L52.02,32.12L55.08,32.12L58.14,30.82L61.2,31.29L64.26,33.89L67.32,33.95L70.38,35.92L100.98,35.93L104.05,41.44L110.17,38.35L113.23,38.16L119.35,38.16L122.41,40.15L128.53,37.84L131.59,38.24L143.83,39.22L146.89,38.77L149.95,39.87L153.01,39.93L156.07,41.55L159.13,41.55L168.31,41.94L171.37,42.45L174.43,42.66L177.49,40.34L183.61,40.34L186.67,39.53L189.73,40.1L192.79,37.59L195.85,37.87L198.91,35.95L208.09,35.63L211.15,36.58L217.27,37.49L220.33,41.95L226.45,41.95L229.51,40.58L232.57,39.64L235.63,40.51L238.69,43.08L241.75,46.95L247.87,46.95L250.93,46.14L253.99,45.92L257.05,44.07L260.11,47.31L263.17,44.78L269.29,44.78L272.35,46.17L275.41,46.42L278.47,45.3L281.53,46.42L284.59,45.41L296.83,45.92L299.89,42.98L302.95,44.26L306.02,42.82L315.2,42.36L318.26,43.41L321.32,43.2L324.38,44.36L330.5,45.13L333.56,45.13L342.74,44.63L345.8,45.41L348.86,44.28L351.92,44.28L354.98,44.28L358.04,45.27L364.16,45.09L367.22,44.92L370.28,44.03L373.34,44.03L385.58,44.04L388.64,46.69L391.7,45.45L394.76,45.45L400.88,44.78L403.94,46.34L407,45.34" style="vector-effect: non-scaling-stroke; fill: none; stroke: rgb(239, 85, 59); stroke-opacity: 1; stroke-width: 2px; opacity: 1;"/></g><g class="points"/><g class="text"/></g><g class="trace scatter trace702b42" style="stroke-miterlimit: 2; opacity: 1;"><g class="fills"/><g class="errorbars"/><g class="lines"><path class="js-line" d="M0,15.4L3.06,10.78L6.12,14.37L12.24,14.37L15.3,13.59L21.42,14.11L24.48,12.63L30.6,12.11L33.66,12.11L36.72,9.31L39.78,11.01L42.84,11.93L45.9,10.71L48.96,9.93L52.02,9.93L58.14,9.93L61.2,17.76L64.26,15.99L67.32,18.06L70.38,20.13L73.44,20.13L76.5,20.13L79.56,26.33L85.68,24.38L88.74,26.26L91.8,29.77L94.86,29.77L97.92,29.77L100.98,28.33L104.05,24.34L107.11,23.82L110.17,22.79L113.23,24.15L119.35,24.15L122.41,23.27L128.53,18.21L131.59,20.28L146.89,20.76L149.95,19.68L153.01,21.35L156.07,21.35L162.19,21.35L165.25,26.85L168.31,28.29L171.37,26.15L174.43,27.29L177.49,26.37L183.61,26.37L186.67,24.82L189.73,25.78L192.79,24.15L195.85,24.82L198.91,27.85L205.03,27.85L208.09,33.83L211.15,28.18L214.21,33.24L217.27,44.32L220.33,36.93L226.45,36.93L229.51,51.3L232.57,43.54L235.63,51.08L238.69,50.97L241.75,49.27L250.93,49.34L253.99,40.74L257.05,38.67L260.11,34.9L263.17,43.21L266.23,43.21L269.29,43.21L272.35,38.41L275.41,37.89L278.47,43.54L281.53,38.45L284.59,40.29L290.71,40.29L293.77,35.42L306.02,36.67L309.08,36.67L315.2,36.56L318.26,34.35L321.32,37.63L324.38,37.08L327.44,34.68L330.5,34.68L333.56,34.68L336.62,35.86L339.68,39.63L342.74,36.3L345.8,36.9L348.86,35.49L354.98,35.49L358.04,32.65L361.1,32.5L364.16,30.17L370.28,38.89L373.34,38.89L376.4,38.89L379.46,37.6L382.52,36.19L385.58,35.82L388.64,35.46L391.7,32.24L400.88,32.91L403.94,34.16L407,33.72" style="vector-effect: non-scaling-stroke; fill: none; stroke: rgb(0, 204, 150); stroke-opacity: 1; stroke-width: 2px; opacity: 1;"/></g><g class="points"/><g class="text"/></g></g></g><g class="overplot"/><path class="xlines-above crisp" style="fill: none;"/><path class="ylines-above crisp" style="fill: none;"/><g class="overlines-above"/><g class="xaxislayer-above"/><g class="yaxislayer-above"/><g class="overaxes-above"/></g><rect class="rangeslider-mask-min" x="0" y="0" shape-rendering="crispEdges" height="54" width="0" style="fill: rgb(0, 0, 0); fill-opacity: 0.4;"/><rect class="rangeslider-mask-max" y="0" shape-rendering="crispEdges" height="54" x="407" width="0" style="fill: rgb(0, 0, 0); fill-opacity: 0.4;"/><g class="rangeslider-grabber-min" transform="translate(-2.5,0.5)"><rect class="rangeslider-handle-min" x="0" width="4" rx="1" fill="#fff" stroke="#444" stroke-width="1" shape-rendering="crispEdges" y="14" height="27"/></g><g class="rangeslider-grabber-max" transform="translate(405.5,0.5)"><rect class="rangeslider-handle-max" x="0" width="4" rx="1" fill="#fff" stroke="#444" stroke-width="1" shape-rendering="crispEdges" y="14" height="27"/></g></g><g class="g-ytitle"><text class="ytitle" transform="rotate(-90,37.23125,197.5)" x="37.23125" y="197.5" text-anchor="middle" style="font-family: 'Franklin Gothic'; font-size: 14px; fill: rgb(42, 63, 95); opacity: 1; font-weight: normal; white-space: pre;">Stock</text></g><g class="g-xtitle"><text class="xtitle" x="283.5" y="451" text-anchor="middle" style="font-family: 'Franklin Gothic'; font-size: 14px; fill: rgb(42, 63, 95); opacity: 1; font-weight: normal; white-space: pre;">Date</text></g></g></svg>